<?xml version="1.0" encoding="utf-8"?>
<svg xmlns="http://www.w3.org/2000/svg" viewBox="50 -150 950 950" xmlns:bx="https://boxy-svg.com">
  <defs>
    <bx:export>
      <bx:file format="svg" path="eye.svg" width="1080" height="1080"/>
    </bx:export>
  </defs>
  <path style="fill: rgb(216, 216, 216); stroke: rgb(0, 0, 0);" d="M 487.794 206.153 L 488.086 218.721 L 485.309 219.159 L 454.327 184.231 L 454.327 182.039 L 484.725 151.933 L 486.478 151.641 L 492.178 156.902 L 492.324 159.094 L 465.872 183.646 L 487.794 206.153 Z"/>
  <path style="fill: rgb(216, 216, 216); stroke: rgb(0, 0, 0);" d="M 498.462 207.76 L 505.769 203.084 L 505.477 201.038 L 480.925 177.216 C 480.925 177.216 478.148 177.362 478.294 177.362 C 478.44 177.362 473.325 182.77 473.179 182.624 C 473.033 182.478 472.449 184.815 472.449 184.815 L 496.124 207.03"/>
  <path style="fill: rgb(216, 216, 216); stroke: rgb(0, 0, 0);" d="M 484.14 173.709 L 484.14 172.247 L 487.647 168.886 L 489.693 168.594 L 511.907 188.908 L 513.515 191.246 L 513.661 200.307 L 510.592 201.037 L 484.14 173.709 Z"/>
  <path style="fill: rgb(216, 216, 216); stroke: rgb(0, 0, 0);" d="M 513.807 182.77 L 513.515 151.495 L 512.2 149.595 L 477.125 121.243 L 460.319 122.997 L 398.061 52.994 L 458.126 137.173 L 460.757 137.903 L 473.618 134.689 C 473.618 134.689 498.901 156.756 499.047 156.756 C 499.193 156.756 492.47 164.648 492.47 164.648 L 511.615 182.477 L 513.807 182.77 Z"/>
  <path style="fill: rgb(216, 216, 216); stroke: rgb(0, 0, 0);" d="M 453.45 164.502 L 453.45 176.047 L 459.88 171.955 L 459.588 169.763 L 453.45 164.502 Z"/>
  <path style="fill: rgb(216, 216, 216); stroke: rgb(0, 0, 0);" d="M 462.072 168.155 L 481.656 149.595 L 481.948 147.841 L 475.81 142.288 L 473.471 142.288 L 461.488 152.81 L 419.69 122.12 L 462.072 168.155 Z"/>
  <path style="fill: rgb(216, 216, 216); stroke: rgb(0, 0, 0);" d="M 485.748 224.421 L 484.14 223.251 L 450.235 223.251 L 450.089 164.209 L 279.685 11.343 L 438.689 169.763 L 440.735 233.043 L 483.263 233.774 L 485.748 224.421 Z"/>
  <path style="fill: rgb(216, 216, 216); stroke: rgb(0, 0, 0);" d="M 453.45 189.492 L 453.45 219.744 C 453.45 219.744 481.071 219.744 480.925 219.89 C 480.779 220.036 453.742 189.346 453.45 189.492 Z"/>
  <path style="fill: rgb(216, 216, 216); stroke: rgb(0, 0, 0);" d="M 429.482 177.801 L 434.743 171.809 L 435.766 173.27 L 435.913 181.747 L 434.159 182.039 L 429.482 177.801 Z"/>
  <path style="fill: rgb(216, 216, 216); stroke: rgb(0, 0, 0);" d="M 521.407 276.594 L 518.338 276.594 L 513.807 275.571 L 519.214 282.147 L 522.137 282.147 L 521.407 276.594 Z"/>
  <path style="fill: rgb(216, 216, 216); stroke: rgb(0, 0, 0);" d="M 494.37 277.471 L 494.663 265.925 L 516.438 283.463 L 516.438 325.844 C 516.438 325.844 483.556 325.991 483.702 326.137 C 483.848 326.283 479.171 237.281 479.171 237.281 L 483.555 237.427 L 489.693 258.764 L 493.493 317.806 C 493.493 317.806 505.769 316.784 506.5 317.076 C 507.231 317.368 505.769 287.847 505.769 287.847 L 494.37 277.471 Z"/>
  <path style="fill: rgb(216, 216, 216); stroke: rgb(0, 0, 0);" d="M 495.101 284.632 L 496.708 312.399 L 503.139 312.107 L 502.846 291.939 L 495.101 284.632 Z"/>
  <path style="fill: rgb(216, 216, 216); stroke: rgb(0, 0, 0);" d="M 475.371 237.574 L 475.664 247.804 L 422.467 247.657 L 422.467 233.628 L 411.653 233.482 C 411.653 233.482 411.945 223.544 411.799 223.544 C 411.653 223.544 437.374 223.398 437.374 223.398 L 437.667 237.573 L 475.371 237.574 Z"/>
  <path style="fill: rgb(216, 216, 216); stroke: rgb(0, 0, 0);" d="M 422.175 196.069 L 424.075 198.115 L 421.883 206.445 L 334.197 187.154 L 422.175 196.069 Z"/>
  <path style="fill: rgb(216, 216, 216); stroke: rgb(0, 0, 0);" d="M 406.684 233.482 L 407.853 232.459 C 407.853 232.459 408.145 219.89 407.999 219.89 C 407.853 219.89 436.351 220.036 436.351 220.036 C 436.351 220.036 437.228 218.429 437.374 218.429 C 437.52 218.429 436.497 189.054 436.789 189.054 C 437.081 189.054 424.66 179.116 424.66 179.116 L 429.921 172.247 L 430.067 170.201 L 366.494 128.55 L 416.622 172.247 L 410.63 181.016 L 410.775 183.5 L 426.705 195.922 C 426.705 195.922 426.559 209.514 426.852 209.514 C 427.145 209.514 395.869 209.368 395.869 209.368 L 394.554 210.391 C 394.554 210.391 394.262 232.897 394.408 232.897 C 394.554 232.897 395.431 234.212 395.577 234.212 C 395.723 234.212 406.245 234.066 406.684 233.482 Z"/>
  <path style="fill: rgb(216, 216, 216); stroke: rgb(0, 0, 0);" d="M 389.293 213.46 L 390.608 236.405 L 296.784 231.143 L 383.301 229.243 L 383.155 221.059 L 362.548 212.583 L 389.293 213.46 Z"/>
  <path style="fill: rgb(216, 216, 216); stroke: rgb(0, 0, 0);" d="M 418.083 239.473 C 418.083 239.473 418.375 259.057 417.937 259.057 C 417.499 259.057 415.599 259.203 415.599 259.203 L 407.122 252.772 C 407.122 252.772 84.583 244.442 84.437 244.442 C 84.291 244.442 417.352 239.62 418.083 239.473 Z"/>
  <path style="fill: rgb(216, 216, 216); stroke: rgb(0, 0, 0);" d="M 458.273 251.603 L 478.148 251.603 L 458.565 271.333 L 458.273 251.603 Z"/>
  <path style="fill: rgb(216, 216, 216); stroke: rgb(0, 0, 0);" d="M 423.198 252.772 L 452.135 252.626 L 453.596 253.503 L 453.888 273.817 L 452.427 274.694 L 439.274 274.548 L 439.858 308.599 L 450.089 320.145 L 449.796 322.045 L 203.398 534.245 L 436.789 320.729 L 429.044 310.938 L 429.043 265.487 L 442.197 265.195 L 441.758 260.518 C 441.758 260.518 423.344 260.664 423.052 260.664 C 422.76 260.664 423.49 252.334 423.198 252.772 Z"/>
  <path style="fill: rgb(216, 216, 216); stroke: rgb(0, 0, 0);" d="M 423.929 286.532 L 423.929 271.187 L 405.515 258.18 L 389.731 257.888 L 318.705 272.356 L 404.345 267.242 L 423.929 286.532 Z"/>
  <path style="fill: rgb(216, 216, 216); stroke: rgb(0, 0, 0);" d="M 443.074 279.663 L 451.55 279.663 L 443.366 287.847 L 443.074 279.663 Z"/>
  <path style="fill: rgb(216, 216, 216); stroke: rgb(0, 0, 0);" d="M 389.877 271.771 L 404.346 271.771 L 424.513 294.423 L 424.513 304.946 L 345.45 350.25 L 413.699 300.416 L 390.023 274.109 L 389.877 271.771 Z"/>
  <path style="fill: rgb(216, 216, 216); stroke: rgb(0, 0, 0);" d="M 478.44 298.808 L 479.171 315.761 L 470.256 308.307 L 470.256 306.407 L 478.44 298.808 Z"/>
  <path style="fill: rgb(216, 216, 216); stroke: rgb(0, 0, 0);" d="M 477.125 259.057 L 477.417 274.109 L 465.141 285.947 L 466.749 287.555 L 477.417 279.078 L 477.856 293.254 L 467.187 304.361 L 449.066 287.409 L 477.125 259.057 Z"/>
  <path style="fill: rgb(216, 216, 216); stroke: rgb(0, 0, 0);" d="M 447.166 290.478 L 443.658 292.377 L 443.95 304.507 L 467.187 327.598 L 435.036 425.368 L 481.071 332.567 C 481.071 332.567 480.34 323.36 480.34 323.214 C 480.34 323.068 447.604 290.77 447.166 290.478 Z"/>
  <path style="fill: rgb(216, 216, 216); stroke: rgb(0, 0, 0);" d="M 521.407 328.621 L 487.209 330.229 L 481.363 382.548 L 495.831 341.774 L 521.26 338.997"/>
  <path style="fill: rgb(216, 216, 216); stroke: rgb(0, 0, 0);" d="M 496.854 344.843 L 506.646 345.281 L 506.646 355.073 L 496.854 344.843 Z"/>
  <path style="fill: rgb(216, 216, 216); stroke: rgb(0, 0, 0);" d="M 488.086 123.728 L 489.986 123.728 L 502.7 111.013 L 502.7 108.967 L 496.708 75.062 L 492.909 102.829 L 485.017 106.921 C 485.017 106.921 440.297 -3.125 440.297 -3.271 C 440.297 -3.417 476.541 115.397 476.541 115.397 L 488.086 123.728 Z"/>
  <path style="fill: rgb(216, 216, 216); stroke: rgb(0, 0, 0);" d="M 511.761 141.996 L 509.715 141.849 L 503.577 137.173 L 504.308 135.273 L 521.407 120.366 L 521.26 114.813 L 500.946 133.227 L 499.047 133.665 L 493.347 128.55 L 493.201 126.797 L 508.546 111.744 L 521.114 -120.332 L 521.699 52.118 C 521.699 52.118 526.609 51.835 527.69 49.34 C 534.098 34.557 541.283 -65.529 541.283 -65.529 C 541.283 -65.529 541.338 8.574 537.775 49.048 C 537.246 55.06 531.796 59.383 530.468 65.27 C 526.478 82.95 530.614 119.636 530.614 119.636 C 530.614 119.636 533.211 127.254 536.752 130.011 C 539.158 131.884 545.666 133.665 545.666 133.665 C 545.666 133.665 537.939 139.282 532.952 140.534 C 530.589 141.127 524.622 140.826 524.622 140.826 C 524.622 140.826 522.868 140.972 521.406 138.634 C 521.406 138.634 521.261 141.265 520.822 132.35 C 520.793 131.766 512.492 141.557 511.761 141.996 Z"/>
  <path style="fill: rgb(216, 216, 216); stroke: rgb(0, 0, 0);" d="M 548.589 161.14 C 548.589 161.14 554.872 163.406 557.212 161.725 C 557.989 161.167 557.943 158.948 557.943 158.948 C 557.943 158.948 548.585 153.746 543.62 151.787 C 537.712 149.457 525.352 146.38 525.352 146.38 L 521.114 148.28 L 520.676 152.226 C 520.676 152.226 529.298 158.733 534.414 162.018 C 538.998 164.961 542.973 169.033 549.758 170.932 C 550.799 171.223 552.063 170.063 552.389 169.032 C 552.793 167.754 551.074 165.232 551.074 165.232 L 548.589 161.14 Z"/>
  <path style="fill: rgb(216, 216, 216); stroke: rgb(0, 0, 0);" d="M 525.206 177.801 C 525.282 176.006 524.791 174.17 524.037 172.54 C 523.19 170.71 518.369 199.363 518.369 199.363 L 519.068 163.771 L 520.968 160.117 L 556.481 178.678 C 556.481 178.678 553.232 176.239 553.12 174.439 C 553.02 172.846 554.569 171.561 555.604 170.347 C 556.434 169.374 557.285 168.165 558.527 167.863 C 559.79 167.556 562.181 168.886 562.327 168.74 L 565.104 170.055 L 565.98 158.51 C 565.98 158.51 568.75 161.15 569.342 162.894 C 570.234 165.523 570.096 168.552 569.342 171.224 C 568.38 174.634 564.903 176.923 563.788 180.285 C 562.941 182.839 562.44 185.705 563.058 188.323 C 563.887 191.836 568.757 197.53 568.757 197.53 C 568.757 197.53 567.511 189.938 567.588 186.277 C 567.645 183.583 567.497 180.831 568.903 178.532 C 570.059 176.641 575.334 174.293 575.48 174.293 C 575.626 174.293 580.74 173.28 583.956 173.124 C 587.374 172.958 589.367 172.901 592.725 173.563 C 595.279 174.067 598.435 175.007 600.47 176.631 C 602.057 177.897 604.708 181.601 604.708 181.601 C 604.708 181.601 597.436 178.75 593.602 178.239 C 590.269 177.795 586.673 177.368 583.518 178.532 C 581.113 179.419 578.83 181.146 577.526 183.354 C 576.092 185.781 576.253 188.871 576.064 191.684 C 575.897 194.165 576.767 196.686 576.357 199.138 C 575.891 201.922 574.488 204.391 573.288 207.03 C 571.853 210.186 569.919 213.723 568.465 216.529 C 566.691 219.953 563.058 225.736 563.058 225.736 C 563.058 225.736 559.715 225.216 558.381 224.274 C 556.79 223.15 555.36 221.485 554.873 219.598 C 554.345 217.55 555.339 215.389 555.75 213.314 C 556.356 210.254 558.024 207.372 558.089 204.253 C 558.147 201.464 557.395 198.65 556.335 196.069 C 555.544 194.144 554.24 192.46 552.974 190.808 C 551.61 189.029 550.153 187.288 548.443 185.839 C 546.938 184.564 543.474 182.624 543.474 182.624 L 540.113 180.139 C 540.113 180.139 541.789 184.831 543.182 186.862 C 544.916 189.39 547.942 190.867 549.612 193.438 C 551.267 195.987 552.375 198.934 552.974 201.914 C 553.473 204.398 553.12 209.514 553.12 209.514 L 551.658 213.606 C 551.658 213.606 547.551 208.99 545.813 206.445 C 544.583 204.643 542.597 200.745 542.597 200.745 C 542.597 200.745 538.5 200.884 536.459 200.745 C 533.957 200.574 532.122 201.141 530.614 199.137 C 528.986 196.973 530.175 191.684 530.175 191.684 L 522.639 199.006 C 522.639 199.006 525.068 181.064 525.206 177.801 Z"/>
  <path style="fill: rgb(216, 216, 216); stroke: rgb(0, 0, 0);" d="M 534.852 113.205 C 534.852 113.205 534.697 118.049 535.29 120.366 C 535.744 122.14 536.465 123.922 537.629 125.335 C 538.781 126.734 542.013 128.697 542.013 128.55 C 542.013 128.403 551.804 128.55 551.804 128.55 L 553.412 59.717 C 553.412 59.717 546.397 83.976 546.397 84.269 C 546.397 84.269 542.744 100.053 543.036 99.906 C 543.036 99.906 538.944 108.821 539.09 108.821 C 539.09 108.821 535.875 112.767 534.852 113.205 Z"/>
  <path style="fill: rgb(216, 216, 216); stroke: rgb(0, 0, 0);" d="M 533.683 144.48 C 533.683 144.48 545.257 140.327 550.489 137.173 C 552.092 136.207 553.774 135.18 554.873 133.665 C 555.85 132.317 556.311 130.623 556.627 128.989 C 557.44 124.779 556.871 120.416 556.92 116.128 C 556.95 113.498 556.368 110.808 556.92 108.236 C 557.368 106.147 558.145 104.001 559.55 102.391 C 561.061 100.66 563.459 99.973 565.396 98.737 C 568.483 96.768 574.603 92.745 574.603 92.745 L 569.634 108.09 L 583.81 81.931 C 583.81 81.931 582.526 76.116 582.202 73.162 C 581.915 70.545 581.901 67.902 581.91 65.27 C 581.925 60.833 581.948 56.374 582.495 51.971 C 582.912 48.615 584.541 42.033 584.541 42.033 C 584.541 42.033 585.418 37.503 585.564 37.503 C 585.71 37.503 586.148 31.219 586.148 31.219 L 589.363 35.603 L 606.462 8.128 C 606.462 8.128 600.675 24.554 597.547 32.68 C 595.412 38.227 592.263 43.427 590.825 49.194 C 589.901 52.9 589.562 56.775 589.656 60.594 C 589.727 63.5 590.971 69.216 590.971 69.216 L 653.082 -21.831 L 575.626 118.759 C 575.626 118.759 586.444 112.534 591.556 108.967 C 594.913 106.625 598.525 104.465 601.201 101.368 C 602.927 99.37 605.147 94.499 605.147 94.499 C 605.147 94.499 606.264 97.964 606.316 99.76 C 606.369 101.585 606.161 103.49 605.439 105.167 C 604.519 107.306 602.742 108.975 601.201 110.721 C 591.307 121.929 569.196 142.142 569.196 142.142 C 569.196 142.142 565.445 145.323 563.204 146.234 C 560.318 147.407 557.111 147.735 553.997 147.841 C 549.346 147.999 544.677 147.287 540.113 146.38 C 537.921 145.945 533.683 144.48 533.683 144.48 Z"/>
  <path style="fill: rgb(216, 216, 216); stroke: rgb(0, 0, 0);" d="M 556.043 153.833 L 598.717 129.427 C 598.717 129.427 604.413 124.509 607.047 121.828 C 610.457 118.356 616.692 110.867 616.692 110.867 C 616.692 110.867 616.835 104.585 617.423 101.514 C 617.826 99.41 618.203 97.201 619.323 95.376 C 622.873 89.592 633.937 81.2 633.937 81.2 L 672.081 47.587 C 672.081 47.587 670.823 50.564 670.035 51.971 C 667.921 55.743 662.874 62.786 662.874 62.786 C 662.874 62.786 666.192 63.267 667.696 63.955 C 668.839 64.478 670.765 65.855 670.765 66.147 C 670.765 66.439 667.152 66.238 665.358 66.439 C 661.331 66.89 657.383 67.738 653.812 69.654 C 648.801 72.342 645.655 77.082 641.683 80.908 C 639.649 82.867 637.74 84.955 635.691 86.899 C 633.314 89.154 628.384 93.476 628.384 93.476 C 628.384 93.476 625.169 99.76 625.315 99.614 C 625.315 99.614 624.614 102.909 624.584 104.583 C 624.56 105.906 625.022 108.529 625.022 108.529 L 926.371 -153.945 C 926.371 -153.945 621.223 141.557 621.077 141.411 C 621.077 141.411 618.245 143.555 617.131 144.918 C 616.026 146.27 615.122 147.817 614.5 149.449 C 613.721 151.493 613.609 153.733 613.185 155.879 C 612.781 157.922 612.016 162.017 612.016 162.017 L 587.902 162.163 C 587.902 162.163 586.89 160.983 586.879 160.264 C 586.832 157.215 589.272 154.613 590.97 152.08 C 592.95 149.126 597.986 144.041 597.986 144.041 C 597.986 144.041 593.484 145.39 591.556 146.672 C 589.319 148.16 587.293 150.101 585.856 152.372 C 584.694 154.208 583.997 156.363 583.664 158.51 C 583.246 161.208 584.999 164.171 583.956 166.694 C 583.574 167.618 582.694 168.373 581.764 168.74 C 579.906 169.472 577.385 169.917 575.772 168.74 C 572.549 166.388 575.11 160.382 572.119 157.34 C 569.777 154.957 563.058 154.71 563.058 154.71 L 556.043 153.833 Z"/>
  <path style="fill: rgb(216, 216, 216); stroke: rgb(0, 0, 0);" d="M 587.902 169.471 L 589.656 165.817 C 589.656 165.817 597.666 164.941 601.639 165.379 C 603.741 165.611 605.859 166.094 607.777 166.986 C 609.615 167.841 612.746 170.494 612.746 170.494 C 612.746 170.494 598.554 171.455 591.556 170.494 C 590.303 170.322 587.902 169.471 587.902 169.471 Z"/>
  <path style="fill: rgb(216, 216, 216); stroke: rgb(0, 0, 0);" d="M 745.153 116.713 L 656.151 173.124 L 653.667 166.109 L 654.69 159.387 L 658.051 152.226 L 665.066 144.626 L 653.374 151.349 L 647.382 156.756 L 644.167 163.625 L 644.021 170.786 L 644.46 174.293 L 641.829 178.824 L 631.745 183.208 L 618.884 150.764 L 616.838 150.764 L 619.615 174.293 L 607.047 174.147 L 607.339 175.755 C 607.339 175.755 616.254 192.707 616.108 192.854 C 615.962 193.001 605.862 187.555 600.47 185.546 C 597.291 184.361 594.049 183.162 590.679 182.77 C 588.499 182.516 586.156 182.29 584.102 183.062 C 582.642 183.611 581.235 184.638 580.449 185.985 C 579.678 187.306 579.779 188.987 579.718 190.515 C 579.669 191.736 579.847 192.958 580.01 194.169 C 580.149 195.201 580.595 197.238 580.595 197.238 L 589.948 192.269 L 561.596 232.605 C 561.596 232.605 565.338 233.56 567.442 233.774 C 570.16 234.05 573.277 234.473 575.918 233.774 C 578.551 233.078 581.066 231.78 583.225 230.12 C 585.441 228.416 588.779 223.836 588.779 223.836 L 594.332 215.068 L 583.81 221.059 C 583.81 221.059 587.504 215.569 590.094 213.606 C 591.97 212.184 594.212 211.129 596.524 210.683 C 598.631 210.276 602.955 210.975 602.955 210.975 C 602.955 210.975 593.963 224.105 588.779 230.12 C 587.475 231.633 586.092 233.099 584.541 234.358 C 583.502 235.201 582.433 236.086 581.179 236.551 C 579.106 237.32 576.813 237.354 574.603 237.427 C 572.407 237.499 567.734 236.989 568.026 236.989 C 568.318 236.989 564.826 238.081 563.35 238.889 C 562.093 239.577 560.603 240.159 559.842 241.373 C 558.898 242.879 559.357 244.9 558.966 246.634 C 558.654 248.018 558.301 249.4 557.796 250.726 C 557.237 252.192 556.045 253.424 555.75 254.965 C 555.493 256.308 556.043 259.057 556.043 259.057 L 557.504 257.741 C 557.504 257.741 560.567 257.081 562.035 257.449 C 563.648 257.853 564.841 259.235 566.273 260.08 C 567.475 260.789 568.654 261.552 569.926 262.126 C 570.867 262.55 571.83 263.312 572.849 263.149 C 573.879 262.985 575.333 261.248 575.333 261.248 C 575.333 261.248 571.367 258.233 569.78 256.28 C 568.723 254.979 566.858 252.188 566.858 252.188 L 568.465 249.265 C 568.465 249.265 569.953 250.7 570.657 251.457 C 572.939 253.91 573.928 258.508 577.233 259.057 C 577.901 259.168 578.609 258.596 578.987 258.034 C 579.372 257.462 579.047 256.637 579.279 255.988 C 580.26 253.251 583.81 248.534 583.81 248.534 L 588.925 239.62 C 588.925 239.62 590.101 245.439 590.386 248.388 C 590.728 251.929 591.472 255.589 590.679 259.057 C 589.946 262.264 588.149 265.214 586.148 267.825 C 584.302 270.233 579.426 273.963 579.426 273.963 L 569.926 279.663 C 569.926 279.663 571.831 281.26 572.995 281.563 C 575.072 282.103 577.366 281.87 579.426 281.27 C 582.338 280.422 587.317 276.74 587.317 276.74 L 591.409 273.817 L 597.986 273.525 C 597.986 273.525 597.613 265.489 599.447 262.125 C 601.185 258.938 604.56 256.793 607.777 255.111 C 610.594 253.638 613.845 253.12 616.985 252.626 C 618.96 252.315 622.976 252.334 622.976 252.334 L 623.123 244.588 C 623.123 244.588 614.618 245.398 610.408 243.712 C 606.562 242.172 600.94 239.873 600.177 235.821 C 599.761 233.612 599.949 233.608 601.786 232.313 C 603.934 230.798 605.357 230.237 606.316 229.828 C 608.085 229.074 609.73 228.531 611.431 227.636 C 613.444 226.577 615.208 224.756 616.108 222.667 C 616.765 221.143 616.671 219.335 616.4 217.698 C 616.168 216.297 615.431 215.02 614.792 213.752 C 611.967 208.15 605.001 197.677 605.001 197.677 C 605.001 197.677 614.243 205.132 617.569 209.952 C 619.44 212.664 621.132 215.741 621.515 219.013 C 621.74 220.93 621.2 222.917 620.492 224.713 C 619.833 226.385 618.888 228.022 617.569 229.243 C 616.065 230.635 614.024 231.31 612.162 232.166 C 609.318 233.473 603.393 235.528 603.393 235.528 C 603.393 235.528 605.669 237.887 607.047 238.743 C 608.568 239.689 611.723 240.789 612.016 240.789 C 612.016 240.789 615.536 241.003 617.277 240.789 C 619.47 240.519 621.707 240.12 623.707 239.181 C 626.168 238.026 630.284 234.358 630.284 234.358 C 630.284 234.358 632.462 236.593 633.353 237.866 C 634.628 239.688 635.969 241.57 636.568 243.712 C 637.185 245.919 636.811 248.289 636.86 250.58 C 636.901 252.528 637.189 254.505 636.86 256.426 C 636.563 258.157 635.106 261.395 635.106 261.395 C 635.106 261.395 638.998 261.295 640.806 260.664 C 642.849 259.951 646.359 257.595 646.359 257.303 C 646.359 257.303 648.198 252.873 647.967 250.58 C 647.342 244.378 643.039 239.11 640.075 233.627 C 638.494 230.702 635.107 225.443 634.814 225.151 C 634.814 225.151 632.689 218.556 633.061 215.213 C 633.382 212.327 634.62 209.454 636.421 207.176 C 638.476 204.577 644.46 201.33 644.46 201.33 L 697.948 160.994 C 697.948 160.994 707.098 152.848 711.978 149.157 C 715.448 146.532 719.047 144.062 722.793 141.849 C 726.751 139.51 730.881 137.459 735.069 135.565 C 737.121 134.637 739.215 133.791 741.353 133.081 C 743.652 132.318 748.368 131.181 748.368 131.181 L 733.022 130.012 L 745.153 116.713 Z"/>
  <path style="fill: rgb(216, 216, 216); stroke: rgb(0, 0, 0);" d="M 638.029 217.844 C 637.131 217.6 635.732 216.84 635.983 215.944 C 636.748 213.216 651.182 199.722 651.182 199.722 C 651.182 199.722 655.859 219.452 656.005 219.452 C 656.151 219.452 1065.5 229.974 1065.5 230.12 C 1065.5 230.266 731.415 242.104 731.415 241.958 C 731.415 241.812 731.751 245.627 732.584 247.219 C 733.783 249.51 735.778 251.366 737.845 252.919 C 740.109 254.621 742.752 255.842 745.445 256.718 C 747.418 257.359 751.583 257.741 751.583 257.741 L 777.158 256.864 L 771.02 262.564 L 824.655 281.417 L 733.607 265.049 C 733.607 265.049 729.277 264.249 727.323 263.295 C 724.819 262.072 722.358 260.488 720.6 258.326 C 718.909 256.246 718.622 253.316 717.239 251.019 C 716.163 249.233 715.239 247.102 713.439 246.05 C 711.018 244.636 707.908 245.054 705.11 244.881 C 702.046 244.691 695.902 245.027 695.902 245.027 C 695.902 245.027 679.82 245.569 671.642 245.904 C 666.08 246.132 660.3 247.191 654.69 246.488 C 653.481 246.337 652.15 246.204 651.182 245.465 C 648.001 243.037 644.898 235.235 644.898 235.235 C 644.898 235.235 643.227 231.588 642.267 229.828 C 641.503 228.427 640.034 227.312 639.783 225.736 C 639.547 224.254 640.006 222.621 640.806 221.352 C 641.471 220.297 642.613 219.573 643.728 219.013 C 644.763 218.494 647.09 218.136 647.09 218.136 C 647.09 218.136 643.724 216.972 641.975 216.967 C 640.628 216.963 639.329 218.197 638.029 217.844 Z"/>
  <path style="fill: rgb(216, 216, 216); stroke: rgb(0, 0, 0);" d="M 520.968 344.551 L 512.053 344.405 L 510.738 346.158 L 521.699 561.72 L 528.129 439.544 C 528.129 439.544 531.354 439.906 532.806 440.567 C 534.739 441.447 536.775 442.578 537.921 444.367 C 538.941 445.96 538.775 448.055 539.09 449.92 C 541.011 461.3 543.328 484.264 543.474 484.264 C 543.62 484.264 546.397 463.804 546.397 463.804 L 546.982 449.482 C 546.982 449.482 546.696 444.834 545.958 442.613 C 545.251 440.484 542.89 436.913 542.89 436.913 C 542.89 436.913 537.749 430.853 536.167 427.268 C 534.473 423.43 533.4 419.187 533.39 414.992 C 533.377 409.421 532.716 404.165 533.537 398.185 C 534.055 394.413 535.031 390.621 536.752 387.225 C 538.166 384.435 540.159 381.899 542.451 379.771 C 544.54 377.831 549.612 375.095 549.612 375.095 C 549.612 375.095 555.897 389.855 555.897 390.001 C 555.897 390.147 556.488 385.528 556.481 383.279 C 556.461 376.43 555.249 369.636 554.581 362.819 C 553.563 352.437 551.512 331.69 551.366 331.69 C 551.366 331.69 551.509 328.048 552.243 326.429 C 552.814 325.168 553.842 324.138 554.873 323.214 C 555.738 322.438 557.796 321.314 557.796 321.314 L 553.704 315.468 L 551.951 316.345 L 546.543 323.36 C 546.543 323.36 543.471 322.479 542.305 321.46 C 540.707 320.064 539.486 318.105 538.944 316.053 C 538.322 313.696 538.653 311.112 539.236 308.745 C 539.997 305.656 542.245 303.114 543.328 300.123 C 543.927 298.468 544.631 296.768 544.643 295.008 C 544.654 293.354 544.112 291.711 543.474 290.185 C 543.01 289.075 541.574 287.116 541.574 287.116 L 535.144 297.785 L 533.39 298.077 L 538.213 287.555 C 538.213 287.555 538.941 284.26 538.944 282.586 C 538.947 281.208 538.715 279.825 538.359 278.494 C 537.953 276.973 537.984 274.869 536.606 274.109 C 534.958 273.2 532.671 274.128 531.052 275.133 C 529.029 276.388 528.219 279.049 527.398 281.27 C 526.163 284.614 526.576 287.66 526.23 291.208 C 525.854 295.069 525.723 300.098 526.375 303.922 C 526.906 307.036 528.86 311.96 529.445 311.96 C 530.03 311.96 532.367 320.583 532.367 320.583 L 538.652 331.105 C 538.652 331.105 538.98 336.49 538.98 336.198 C 538.98 335.906 538.505 342.359 538.505 342.359 L 532.952 326.137 L 530.321 326.283 C 530.321 326.283 530.393 333.785 530.468 337.536 C 530.54 341.142 530.891 344.747 530.76 348.351 C 530.653 351.286 529.883 357.119 529.883 357.119 L 527.106 339.436 C 527.106 339.436 525.671 342.917 525.061 344.697 C 524.286 346.957 523.014 351.565 523.014 351.565 C 523.014 351.565 523.102 346.071 523.599 343.382 C 524.21 340.078 526.522 333.736 526.522 333.736 L 527.837 327.89 C 527.837 327.89 527.618 321.212 526.96 317.953 C 526.424 315.295 525.589 312.679 524.476 310.207 C 523.732 308.554 521.699 305.53 521.699 305.53 L 520.968 320.145 L 520.968 344.551 Z"/>
  <path style="fill: rgb(216, 216, 216); stroke: rgb(0, 0, 0);" d="M 543.328 317.222 C 543.328 317.222 542.987 313.996 543.182 312.399 C 543.335 311.143 544.059 308.745 544.205 308.745 C 544.205 308.745 546.419 305.183 546.982 303.192 C 548.046 299.428 548.236 295.406 548.005 291.501 C 547.864 289.117 547.257 286.765 546.543 284.486 C 545.277 280.445 542.419 276.944 541.574 272.794 C 541.457 272.221 541.32 271.567 541.574 271.04 C 542.764 268.573 545.696 267.398 548.005 265.925 C 548.831 265.398 549.685 264.851 550.635 264.61 C 554.84 263.542 563.642 264.172 563.642 264.172 C 563.642 264.172 567.93 264.75 570.072 265.049 C 571.437 265.239 572.82 265.938 574.164 265.633 C 576.22 265.167 577.77 263.431 579.426 262.126 C 580.834 261.016 582.229 259.853 583.372 258.472 C 584.544 257.056 586.294 253.795 586.294 253.795 C 586.294 253.795 586.227 257.698 585.564 259.495 C 584.455 262.499 582.353 265.073 580.302 267.533 C 578.537 269.65 574.603 273.233 574.311 273.233 C 574.311 273.233 568.591 275.829 566.711 278.201 C 566.002 279.095 565.308 280.301 565.542 281.417 C 565.846 282.867 567.519 283.631 568.611 284.632 C 569.531 285.475 571.534 286.97 571.534 286.97 C 571.534 286.97 567.296 288.724 566.857 288.432 C 566.857 288.432 564.502 288.25 563.496 287.7 C 562.529 287.172 561.794 286.263 561.158 285.363 C 559.85 283.512 559.543 281.075 558.235 279.224 C 557.122 277.648 554.142 275.132 554.142 275.132 C 554.142 275.132 555.392 283.572 557.504 287.116 C 558.462 288.724 559.462 290.452 561.012 291.501 C 562.824 292.727 565.108 293.409 567.296 293.4 C 570.408 293.387 573.456 292.073 576.21 290.624 C 579.557 288.863 584.979 283.609 585.125 283.609 C 585.125 283.609 589.01 280.791 591.263 280.101 C 593.132 279.529 595.178 279.361 597.109 279.663 C 599.03 279.964 600.786 280.966 602.516 281.855 C 604.055 282.646 605.555 283.544 606.901 284.632 C 609.714 286.905 614.5 292.377 614.5 292.377 C 614.5 292.377 593.209 290.627 591.118 291.939 C 590.532 292.307 591.778 293.319 592.432 293.547 C 593.939 294.072 597.109 292.524 597.109 292.524 C 597.109 292.524 595.683 300.176 592.725 302.023 C 587.022 305.585 579.278 301.803 572.557 301.584 C 570.315 301.511 568.042 301.689 565.834 301.292 C 564.121 300.984 562.473 300.353 560.865 299.685 C 558.994 298.908 557.071 298.134 555.458 296.908 C 554.086 295.865 551.951 293.108 551.951 293.108 C 551.951 293.108 551.464 297.876 551.366 300.269 C 551.287 302.216 551.366 304.166 551.366 306.115 C 551.366 307.284 551.366 309.622 551.366 309.622 C 551.366 309.768 550.452 312.491 549.466 313.568 C 547.858 315.324 544.205 317.368 543.328 317.222 Z"/>
  <path style="fill: rgb(216, 216, 216); stroke: rgb(0, 0, 0);" d="M 555.312 301.731 L 554.289 303.484 L 578.256 355.219 L 567.003 336.951 L 566.273 344.112 L 563.788 338.997 L 563.204 330.813 C 563.204 330.813 561.162 328.204 559.696 327.598 C 558.615 327.151 557.266 326.995 556.189 327.452 C 555.649 327.681 555.02 328.767 555.02 328.767 C 555.02 328.767 555.327 340.995 556.773 346.889 C 557.299 349.033 558.104 351.145 559.258 353.027 C 561.315 356.383 564.319 359.063 567.003 361.942 C 568.882 363.958 572.849 367.495 572.849 367.788 C 572.849 367.788 575.072 375.032 575.772 378.748 C 576.58 383.035 576.331 387.486 577.233 391.755 C 577.972 395.252 579.907 398.452 580.449 401.985 C 580.878 404.778 580.666 407.644 580.449 410.461 C 580.18 413.951 578.841 420.838 578.841 420.838 C 578.841 420.838 581.313 416.79 583.372 416.599 C 584.004 416.54 584.536 417.167 584.979 417.623 C 588.618 421.367 593.017 431.068 593.017 431.068 L 587.025 390.001 L 735.507 667.674 L 572.557 327.306 C 572.557 327.306 571.281 323.739 571.388 321.898 C 571.519 319.637 572.505 317.461 573.58 315.468 C 574.635 313.513 576 311.67 577.672 310.207 C 578.69 309.316 581.179 308.161 581.179 308.161 L 580.595 304.653 C 580.595 304.653 573.141 306.845 573.434 306.845 C 573.434 306.845 569.823 307.489 568.026 307.284 C 565.791 307.029 563.66 306.132 561.596 305.238 C 559.395 304.285 555.312 301.731 555.312 301.731 Z"/>
  <path style="fill: rgb(216, 216, 216); stroke: rgb(0, 0, 0);" d="M 596.671 316.491 C 596.671 316.491 594.944 319.092 594.625 320.583 C 594.38 321.727 594.771 324.091 594.771 324.091 L 606.754 364.572 L 579.426 331.398 C 579.426 331.398 576.966 328.089 576.503 326.137 C 575.963 323.86 576.117 321.362 576.795 319.122 C 577.637 316.339 579.186 313.637 581.325 311.668 C 583.168 309.971 585.638 308.991 588.048 308.307 C 590.683 307.56 595.94 307.576 596.232 307.576 C 596.232 307.576 602.896 308.986 606.17 309.915 C 608.689 310.63 613.477 312.399 613.623 312.399 L 619.615 316.637 L 621.223 315.907 L 620.784 314.153 C 620.784 314.153 615.241 309.016 612.162 306.846 C 610.413 305.614 608.588 304.441 606.608 303.63 C 603.721 302.448 597.547 301.292 597.547 301.292 C 597.547 301.292 601.515 298.283 603.832 297.492 C 606.662 296.526 609.758 296.337 612.746 296.469 C 614.684 296.554 616.62 296.985 618.446 297.639 C 621.298 298.66 626.338 301.877 626.484 301.877 C 626.484 301.877 630.861 305.491 633.06 307.284 C 682.536 347.627 781.981 427.706 781.981 427.706 L 626.484 328.183 C 626.484 328.183 624.693 330.031 623.999 331.105 C 623.443 331.965 622.869 332.875 622.684 333.882 C 622.464 335.084 622.14 336.645 622.976 337.536 C 632.551 347.746 641.676 357.97 652.205 366.911 C 653.163 367.725 654.197 368.455 655.274 369.103 C 658.447 371.013 665.212 374.072 665.212 374.072 L 659.951 375.533 L 669.012 392.194 C 669.012 392.194 637.251 363.451 621.369 349.081 C 619.323 347.23 616.916 345.713 615.231 343.528 C 613.422 341.181 611.139 335.636 611.139 335.636 C 611.139 335.636 609.782 330.547 608.655 328.183 C 607.486 325.731 606.031 323.383 604.27 321.314 C 603.085 319.922 600.031 317.661 600.178 317.661 C 600.178 317.661 596.963 316.345 596.671 316.491 Z"/>
  <path style="fill: rgb(216, 216, 216); stroke: rgb(0, 0, 0);" d="M 627.653 239.327 L 631.599 240.643 L 632.183 255.257 L 630.137 262.856 L 627.945 269.433 C 627.945 269.433 630.137 269.287 630.43 269.433 C 630.723 269.579 635.691 267.095 635.983 267.095 C 635.983 267.095 639.42 264.834 641.391 264.61 C 644.011 264.313 646.616 265.442 649.136 266.218 C 652.664 267.304 656.034 268.868 659.366 270.456 C 667.67 274.414 675.591 279.131 683.626 283.609 C 690.05 287.189 696.365 290.959 702.771 294.57 C 782.993 339.783 944.346 428.583 944.346 428.583 L 676.173 307.138 C 676.173 307.138 676.685 311.628 677.488 313.714 C 678.547 316.466 680.233 318.966 682.018 321.314 C 685.646 326.087 690.806 329.553 694.441 334.321 C 695.991 336.354 698.387 340.897 698.387 340.897 C 698.387 340.897 670.324 321.651 661.412 313.568 C 659.569 311.896 659.229 309.075 658.489 306.699 C 657.838 304.61 658.399 302.082 657.174 300.269 C 655.245 297.414 651.606 296.163 648.552 294.57 C 645.857 293.164 643.061 291.778 640.075 291.208 C 638.113 290.833 636.08 291.24 634.083 291.208 C 631.013 291.159 627.882 291.544 624.876 290.916 C 621.795 290.272 618.843 288.967 616.108 287.409 C 613.119 285.707 610.494 283.411 607.924 281.124 C 606.097 279.498 603.884 278.06 602.809 275.863 C 601.88 273.963 601.78 271.689 601.932 269.579 C 602.045 268.011 602.637 266.498 603.247 265.049 C 603.746 263.863 605.147 261.687 605.147 261.687 C 605.147 261.687 625.461 281.563 625.753 281.855 C 626.045 282.147 607.924 260.81 607.777 260.664 C 607.63 260.518 607.631 257.888 607.631 257.888 L 614.501 258.326 C 614.501 258.326 619.407 258.771 621.515 257.741 C 624.55 256.257 626.321 253.67 627.507 250.873 C 628.404 248.757 628.101 246.302 628.091 244.004 C 628.084 242.438 627.653 239.327 627.653 239.327 Z"/>
</svg>