<?xml version="1.0" encoding="utf-8"?>
<svg xmlns="http://www.w3.org/2000/svg" viewBox="200 0 650 650" xmlns:bx="https://boxy-svg.com">
  <defs>
    <bx:export>
      <bx:file format="svg" path="eye.svg" width="1080" height="1080"/>
    </bx:export>
  </defs>
  <path style="fill: rgb(216, 216, 216); stroke: rgb(0, 0, 0);" d="M 521.407 276.594 L 518.338 276.594 L 513.807 275.571 L 519.214 282.147 L 522.137 282.147 L 521.407 276.594 Z"/>
  <path style="fill: rgb(216, 216, 216); stroke: rgb(0, 0, 0);" d="M 495.101 284.632 L 496.708 312.399 L 503.139 312.107 L 502.846 291.939 L 495.101 284.632 Z"/>
  <path style="fill: rgb(216, 216, 216); stroke: rgb(0, 0, 0);" d="M 443.074 279.663 L 451.55 279.663 L 443.366 287.847 L 443.074 279.663 Z"/>
  <path style="stroke: rgb(0, 0, 0); fill: rgb(35, 227, 152);" d="M 496.192 120.571 L 497.552 120.571 L 506.647 113.546 L 506.647 112.416 L 502.36 93.684 L 499.643 109.025 L 493.997 111.285 C 493.997 111.285 462.005 50.487 462.005 50.407 C 462.005 50.326 487.933 115.968 487.933 115.968 L 496.192 120.571 Z"/>
  <path style="stroke: rgb(0, 0, 0); fill: rgb(35, 227, 152);" d="M 516.498 140.417 L 514.451 140.323 L 508.313 137.336 L 509.044 136.123 L 526.144 126.602 L 525.996 123.056 L 505.682 134.817 L 503.783 135.096 L 498.083 131.83 L 497.937 130.71 L 513.282 121.097 L 521.527 -19.341 L 522.111 90.799 C 522.111 90.799 527.022 90.617 528.102 89.024 C 534.511 79.582 541.696 15.66 541.696 15.66 C 541.696 15.66 541.751 62.987 538.188 88.837 C 537.658 92.676 532.209 95.437 530.881 99.198 C 526.89 110.491 535.35 126.135 535.35 126.135 C 535.35 126.135 537.947 131.003 541.488 132.763 C 543.894 133.958 550.402 135.096 550.402 135.096 C 550.402 135.096 542.675 138.683 537.688 139.483 C 535.326 139.863 529.358 139.669 529.358 139.669 C 529.358 139.669 527.605 139.763 526.142 138.269 C 526.142 138.269 525.998 139.949 525.558 134.257 C 525.529 133.883 517.228 140.137 516.498 140.417 Z"/>
  <path style="stroke: rgb(0, 0, 0); fill: rgb(142, 178, 173);" d="M 525.206 177.801 C 525.282 176.006 524.791 174.17 524.037 172.54 C 523.19 170.71 518.369 199.363 518.369 199.363 L 519.068 163.771 L 520.968 160.117 L 556.481 178.678 C 556.481 178.678 553.232 176.239 553.12 174.439 C 553.02 172.846 554.569 171.561 555.604 170.347 C 556.434 169.374 557.285 168.165 558.527 167.863 C 559.79 167.556 562.181 168.886 562.327 168.74 L 565.104 170.055 L 565.98 158.51 C 565.98 158.51 568.75 161.15 569.342 162.894 C 570.234 165.523 570.096 168.552 569.342 171.224 C 568.38 174.634 564.903 176.923 563.788 180.285 C 562.941 182.839 562.44 185.705 563.058 188.323 C 563.887 191.836 568.757 197.53 568.757 197.53 C 568.757 197.53 567.511 189.938 567.588 186.277 C 567.645 183.583 567.497 180.831 568.903 178.532 C 570.059 176.641 575.334 174.293 575.48 174.293 C 575.626 174.293 580.74 173.28 583.956 173.124 C 587.374 172.958 589.367 172.901 592.725 173.563 C 595.279 174.067 598.435 175.007 600.47 176.631 C 602.057 177.897 604.708 181.601 604.708 181.601 C 604.708 181.601 597.436 178.75 593.602 178.239 C 590.269 177.795 586.673 177.368 583.518 178.532 C 581.113 179.419 578.83 181.146 577.526 183.354 C 576.092 185.781 576.253 188.871 576.064 191.684 C 575.897 194.165 576.767 196.686 576.357 199.138 C 575.891 201.922 574.488 204.391 573.288 207.03 C 571.853 210.186 569.919 213.723 568.465 216.529 C 566.691 219.953 563.058 225.736 563.058 225.736 C 563.058 225.736 559.715 225.216 558.381 224.274 C 556.79 223.15 555.36 221.485 554.873 219.598 C 554.345 217.55 555.339 215.389 555.75 213.314 C 556.356 210.254 558.024 207.372 558.089 204.253 C 558.147 201.464 557.395 198.65 556.335 196.069 C 555.544 194.144 554.24 192.46 552.974 190.808 C 551.61 189.029 550.153 187.288 548.443 185.839 C 546.938 184.564 543.474 182.624 543.474 182.624 L 540.113 180.139 C 540.113 180.139 541.789 184.831 543.182 186.862 C 544.916 189.39 547.942 190.867 549.612 193.438 C 551.267 195.987 552.375 198.934 552.974 201.914 C 553.473 204.398 553.12 209.514 553.12 209.514 L 551.658 213.606 C 551.658 213.606 547.551 208.99 545.813 206.445 C 544.583 204.643 542.597 200.745 542.597 200.745 C 542.597 200.745 538.5 200.884 536.459 200.745 C 533.957 200.574 532.122 201.141 530.614 199.137 C 528.986 196.973 530.175 191.684 530.175 191.684 L 522.639 199.006 C 522.639 199.006 525.068 181.064 525.206 177.801 Z"/>
  <path style="stroke: rgb(0, 0, 0); fill: rgb(35, 227, 152);" d="M 536.036 110.837 C 536.036 110.837 535.881 115.681 536.474 117.998 C 536.928 119.772 537.649 121.554 538.813 122.967 C 539.965 124.366 543.197 126.329 543.197 126.182 C 543.197 126.035 552.988 126.182 552.988 126.182 L 554.596 57.349 C 554.596 57.349 547.581 81.608 547.581 81.901 C 547.581 81.901 543.928 97.685 544.22 97.538 C 544.22 97.538 540.128 106.453 540.274 106.453 C 540.274 106.453 537.059 110.399 536.036 110.837 Z"/>
  <path style="stroke: rgb(0, 0, 0); fill: rgb(35, 227, 152);" d="M 533.683 145.881 C 533.683 145.881 544.607 143.447 549.545 141.599 C 551.057 141.033 552.645 140.431 553.682 139.543 C 554.604 138.753 555.039 137.76 555.338 136.803 C 556.105 134.336 555.568 131.779 555.614 129.266 C 555.643 127.725 555.093 126.149 555.614 124.642 C 556.037 123.418 556.77 122.16 558.096 121.217 C 559.522 120.202 561.786 119.8 563.614 119.075 C 566.527 117.922 572.304 115.564 572.304 115.564 L 567.614 124.556 L 580.993 109.227 C 580.993 109.227 579.781 105.82 579.475 104.089 C 579.205 102.555 579.191 101.006 579.2 99.464 C 579.214 96.864 579.236 94.251 579.752 91.671 C 580.146 89.704 581.683 85.847 581.683 85.847 C 581.683 85.847 582.511 83.193 582.649 83.193 C 582.786 83.193 583.2 79.51 583.2 79.51 L 586.234 82.079 L 602.372 65.979 C 602.372 65.979 596.91 75.605 593.958 80.366 C 591.943 83.617 588.971 86.664 587.614 90.043 C 586.742 92.215 586.422 94.486 586.511 96.724 C 586.578 98.427 587.752 101.776 587.752 101.776 L 646.372 48.423 L 573.269 130.808 C 573.269 130.808 583.479 127.16 588.304 125.07 C 591.472 123.698 594.881 122.432 597.407 120.617 C 599.036 119.446 601.131 116.592 601.131 116.592 C 601.131 116.592 602.185 118.622 602.234 119.675 C 602.284 120.744 602.088 121.861 601.407 122.843 C 600.538 124.097 598.861 125.075 597.407 126.098 C 588.069 132.666 567.2 144.511 567.2 144.511 C 567.2 144.511 563.66 146.375 561.545 146.908 C 558.821 147.596 555.794 147.788 552.855 147.85 C 548.466 147.943 544.059 147.525 539.752 146.994 C 537.683 146.739 533.683 145.881 533.683 145.881 Z"/>
  <path style="stroke: rgb(0, 0, 0); fill: rgb(35, 227, 152);" d="M 556.043 153.833 L 598.717 129.427 C 598.717 129.427 604.413 124.509 607.047 121.828 C 610.457 118.356 616.692 110.867 616.692 110.867 C 616.692 110.867 616.835 104.585 617.423 101.514 C 617.826 99.41 618.203 97.201 619.323 95.376 C 622.873 89.592 633.937 81.2 633.937 81.2 L 672.081 47.587 C 672.081 47.587 670.823 50.564 670.035 51.971 C 667.921 55.743 662.874 62.786 662.874 62.786 C 662.874 62.786 666.192 63.267 667.696 63.955 C 668.839 64.478 670.765 65.855 670.765 66.147 C 670.765 66.439 667.152 66.238 665.358 66.439 C 661.331 66.89 657.383 67.738 653.812 69.654 C 648.801 72.342 645.655 77.082 641.683 80.908 C 639.649 82.867 637.74 84.955 635.691 86.899 C 633.314 89.154 628.384 93.476 628.384 93.476 C 628.384 93.476 625.169 99.76 625.315 99.614 C 625.315 99.614 624.614 102.909 624.584 104.583 C 624.56 105.906 625.022 108.529 625.022 108.529 L 665.633 73.157 L 678.508 62.343 C 678.508 62.343 621.223 141.557 621.077 141.411 C 621.077 141.411 618.245 143.555 617.131 144.918 C 616.026 146.27 615.122 147.817 614.5 149.449 C 613.721 151.493 613.609 153.733 613.185 155.879 C 612.781 157.922 612.016 162.017 612.016 162.017 L 587.902 162.163 C 587.902 162.163 586.89 160.983 586.879 160.264 C 586.832 157.215 589.272 154.613 590.97 152.08 C 592.95 149.126 597.986 144.041 597.986 144.041 C 597.986 144.041 593.484 145.39 591.556 146.672 C 589.319 148.16 587.293 150.101 585.856 152.372 C 584.694 154.208 583.997 156.363 583.664 158.51 C 583.246 161.208 584.999 164.171 583.956 166.694 C 583.574 167.618 582.694 168.373 581.764 168.74 C 579.906 169.472 577.385 169.917 575.772 168.74 C 572.549 166.388 575.11 160.382 572.119 157.34 C 569.777 154.957 563.058 154.71 563.058 154.71 L 556.043 153.833 Z"/>
  <path style="stroke: rgb(0, 0, 0); fill: rgb(142, 178, 173);" d="M 670.557 165.654 L 656.151 173.124 L 653.667 166.109 L 654.69 159.387 L 658.051 152.226 L 665.066 144.626 L 653.374 151.349 L 647.382 156.756 L 644.167 163.625 L 644.021 170.786 L 644.46 174.293 L 641.829 178.824 L 631.745 183.208 L 618.884 150.764 L 616.838 150.764 L 619.615 174.293 L 607.047 174.147 L 607.339 175.755 C 607.339 175.755 616.254 192.707 616.108 192.854 C 615.962 193.001 605.862 187.555 600.47 185.546 C 597.291 184.361 594.049 183.162 590.679 182.77 C 588.499 182.516 586.156 182.29 584.102 183.062 C 582.642 183.611 581.235 184.638 580.449 185.985 C 579.678 187.306 579.779 188.987 579.718 190.515 C 579.669 191.736 579.847 192.958 580.01 194.169 C 580.149 195.201 580.595 197.238 580.595 197.238 L 589.948 192.269 L 561.596 232.605 C 561.596 232.605 565.338 233.56 567.442 233.774 C 570.16 234.05 573.277 234.473 575.918 233.774 C 578.551 233.078 581.066 231.78 583.225 230.12 C 585.441 228.416 588.779 223.836 588.779 223.836 L 594.332 215.068 L 583.81 221.059 C 583.81 221.059 587.504 215.569 590.094 213.606 C 591.97 212.184 594.212 211.129 596.524 210.683 C 598.631 210.276 602.955 210.975 602.955 210.975 C 602.955 210.975 593.963 224.105 588.779 230.12 C 587.475 231.633 586.092 233.099 584.541 234.358 C 583.502 235.201 582.433 236.086 581.179 236.551 C 579.106 237.32 576.813 237.354 574.603 237.427 C 572.407 237.499 567.734 236.989 568.026 236.989 C 568.318 236.989 564.826 238.081 563.35 238.889 C 562.093 239.577 560.603 240.159 559.842 241.373 C 558.898 242.879 559.357 244.9 558.966 246.634 C 558.654 248.018 558.301 249.4 557.796 250.726 C 557.237 252.192 556.045 253.424 555.75 254.965 C 555.493 256.308 556.043 259.057 556.043 259.057 L 557.504 257.741 C 557.504 257.741 560.567 257.081 562.035 257.449 C 563.648 257.853 564.841 259.235 566.273 260.08 C 567.475 260.789 568.654 261.552 569.926 262.126 C 570.867 262.55 571.83 263.312 572.849 263.149 C 573.879 262.985 575.333 261.248 575.333 261.248 C 575.333 261.248 571.367 258.233 569.78 256.28 C 568.723 254.979 566.858 252.188 566.858 252.188 L 568.465 249.265 C 568.465 249.265 569.953 250.7 570.657 251.457 C 572.939 253.91 573.928 258.508 577.233 259.057 C 577.901 259.168 578.609 258.596 578.987 258.034 C 579.372 257.462 579.047 256.637 579.279 255.988 C 580.26 253.251 583.81 248.534 583.81 248.534 L 588.925 239.62 C 588.925 239.62 590.101 245.439 590.386 248.388 C 590.728 251.929 591.472 255.589 590.679 259.057 C 589.946 262.264 588.149 265.214 586.148 267.825 C 584.302 270.233 579.426 273.963 579.426 273.963 L 569.926 279.663 C 569.926 279.663 571.831 281.26 572.995 281.563 C 575.072 282.103 577.366 281.87 579.426 281.27 C 582.338 280.422 587.317 276.74 587.317 276.74 L 591.409 273.817 L 597.986 273.525 C 597.986 273.525 597.613 265.489 599.447 262.125 C 601.185 258.938 604.56 256.793 607.777 255.111 C 610.594 253.638 613.845 253.12 616.985 252.626 C 618.96 252.315 622.976 252.334 622.976 252.334 L 623.123 244.588 C 623.123 244.588 614.618 245.398 610.408 243.712 C 606.562 242.172 600.94 239.873 600.177 235.821 C 599.761 233.612 599.949 233.608 601.786 232.313 C 603.934 230.798 605.357 230.237 606.316 229.828 C 608.085 229.074 609.73 228.531 611.431 227.636 C 613.444 226.577 615.208 224.756 616.108 222.667 C 616.765 221.143 616.671 219.335 616.4 217.698 C 616.168 216.297 615.431 215.02 614.792 213.752 C 611.967 208.15 605.001 197.677 605.001 197.677 C 605.001 197.677 614.243 205.132 617.569 209.952 C 619.44 212.664 621.132 215.741 621.515 219.013 C 621.74 220.93 621.2 222.917 620.492 224.713 C 619.833 226.385 618.888 228.022 617.569 229.243 C 616.065 230.635 614.024 231.31 612.162 232.166 C 609.318 233.473 603.393 235.528 603.393 235.528 C 603.393 235.528 605.669 237.887 607.047 238.743 C 608.568 239.689 611.723 240.789 612.016 240.789 C 612.016 240.789 615.536 241.003 617.277 240.789 C 619.47 240.519 621.707 240.12 623.707 239.181 C 626.168 238.026 630.284 234.358 630.284 234.358 C 630.284 234.358 632.462 236.593 633.353 237.866 C 634.628 239.688 635.969 241.57 636.568 243.712 C 637.185 245.919 636.811 248.289 636.86 250.58 C 636.901 252.528 637.189 254.505 636.86 256.426 C 636.563 258.157 635.106 261.395 635.106 261.395 C 635.106 261.395 638.998 261.295 640.806 260.664 C 642.849 259.951 646.359 257.595 646.359 257.303 C 646.359 257.303 648.198 252.873 647.967 250.58 C 647.342 244.378 643.039 239.11 640.075 233.627 C 638.494 230.702 635.107 225.443 634.814 225.151 C 634.814 225.151 632.689 218.556 633.061 215.213 C 633.382 212.327 634.62 209.454 636.421 207.176 C 638.476 204.577 644.46 201.33 644.46 201.33 L 654.927 190.201 C 654.927 190.201 664.077 182.055 668.957 178.364 C 672.427 175.739 676.026 173.269 679.772 171.056 C 683.73 168.717 687.86 166.666 692.048 164.772 C 694.1 163.844 696.194 162.998 698.332 162.288 C 700.631 161.525 705.347 160.388 705.347 160.388 L 690.001 159.219 L 670.557 165.654 Z"/>
  <path style="stroke: rgb(0, 0, 0); fill: rgb(35, 227, 152);" d="M 638.029 217.844 C 637.131 217.6 635.732 216.84 635.983 215.944 C 636.748 213.216 651.182 199.722 651.182 199.722 C 651.182 199.722 655.859 219.452 656.005 219.452 C 656.151 219.452 765.934 218.133 668.051 233.277 C 668.051 233.277 731.415 242.104 731.415 241.958 C 731.415 241.812 731.751 245.627 732.584 247.219 C 733.783 249.51 735.778 251.366 737.845 252.919 C 740.109 254.621 742.752 255.842 745.445 256.718 C 747.418 257.359 751.583 257.741 751.583 257.741 L 777.158 256.864 L 771.02 262.564 L 824.655 281.417 L 733.607 265.049 C 733.607 265.049 729.277 264.249 727.323 263.295 C 724.819 262.072 722.358 260.488 720.6 258.326 C 718.909 256.246 718.622 253.316 717.239 251.019 C 716.163 249.233 715.239 247.102 713.439 246.05 C 711.018 244.636 707.908 245.054 705.11 244.881 C 702.046 244.691 695.902 245.027 695.902 245.027 C 695.902 245.027 679.82 245.569 671.642 245.904 C 666.08 246.132 660.3 247.191 654.69 246.488 C 653.481 246.337 652.15 246.204 651.182 245.465 C 648.001 243.037 644.898 235.235 644.898 235.235 C 644.898 235.235 643.227 231.588 642.267 229.828 C 641.503 228.427 640.034 227.312 639.783 225.736 C 639.547 224.254 640.006 222.621 640.806 221.352 C 641.471 220.297 642.613 219.573 643.728 219.013 C 644.763 218.494 647.09 218.136 647.09 218.136 C 647.09 218.136 643.724 216.972 641.975 216.967 C 640.628 216.963 639.329 218.197 638.029 217.844 Z"/>
  <path style="stroke: rgb(0, 0, 0); fill: rgb(142, 178, 173);" d="M 561.232 290.68 L 560.209 292.433 L 584.176 344.168 L 572.923 325.9 L 572.193 333.061 L 569.708 327.946 L 569.124 319.762 C 569.124 319.762 567.082 317.153 565.616 316.547 C 564.535 316.1 563.186 315.944 562.109 316.401 C 561.569 316.63 560.94 317.716 560.94 317.716 C 560.94 317.716 561.247 329.944 562.693 335.838 C 563.219 337.982 564.024 340.094 565.178 341.976 C 567.235 345.332 566.644 346.814 569.328 349.693 C 571.207 351.709 573.177 356.444 573.177 356.737 C 573.177 356.737 575.4 363.981 576.1 367.697 C 576.908 371.984 572.266 379.231 573.168 383.5 C 573.907 386.997 575.842 390.197 576.384 393.73 C 576.813 396.523 576.601 399.389 576.384 402.206 C 576.115 405.696 574.776 412.583 574.776 412.583 C 574.776 412.583 577.248 408.535 579.307 408.344 C 579.939 408.285 580.471 408.912 580.914 409.368 C 584.553 413.112 588.952 422.813 588.952 422.813 C 589.254 422.511 590.074 382.22 589.35 382.944 L 613.219 381.834 L 578.477 316.255 C 578.477 316.255 577.201 312.688 577.308 310.847 C 577.439 308.586 580.149 303.664 579.105 301.654 C 577.656 298.864 583.965 294.985 585.96 293.631 C 587.079 292.871 598.545 282.507 598.545 282.507 L 595.198 278.999 C 595.198 278.999 576.299 285.532 576.592 285.532 C 576.592 285.532 582.847 287.36 579.866 291.891 C 578.63 293.77 573.132 296.66 571.068 295.766 C 568.867 294.813 561.232 290.68 561.232 290.68 Z"/>
  <path style="stroke: rgb(0, 0, 0); fill: rgb(35, 227, 152);" d="M 592.181 304.754 C 592.181 304.754 591.431 306.55 591.292 307.579 C 591.186 308.369 591.356 310.001 591.356 310.001 L 596.559 337.945 L 584.692 315.045 C 584.692 315.045 583.624 312.76 583.423 311.413 C 583.188 309.841 583.255 308.117 583.549 306.57 C 583.915 304.649 584.588 302.784 585.517 301.425 C 586.317 300.253 587.389 299.577 588.436 299.104 C 589.58 298.589 591.863 298.6 591.99 298.6 C 591.99 298.6 594.884 299.573 596.306 300.215 C 597.4 300.708 599.479 301.929 599.542 301.929 L 602.144 304.855 L 602.842 304.351 L 602.652 303.14 C 602.652 303.14 600.245 299.594 598.908 298.096 C 598.148 297.245 597.356 296.436 596.496 295.876 C 595.242 295.06 592.561 294.262 592.561 294.262 C 592.561 294.262 594.284 292.185 595.29 291.639 C 596.519 290.972 597.864 290.841 599.161 290.932 C 600.003 290.991 600.844 291.289 601.637 291.74 C 602.875 292.445 605.064 294.666 605.127 294.666 C 605.127 294.666 607.028 297.161 607.983 298.398 C 629.468 326.248 672.653 381.528 672.653 381.528 L 605.127 312.825 C 605.127 312.825 604.349 314.101 604.048 314.842 C 603.807 315.436 603.557 316.064 603.477 316.759 C 603.381 317.589 603.241 318.667 603.604 319.282 C 607.762 326.33 611.724 333.388 616.297 339.56 C 616.713 340.122 617.162 340.626 617.629 341.073 C 619.007 342.392 621.945 344.504 621.945 344.504 L 619.66 345.512 L 623.595 357.014 C 623.595 357.014 609.803 337.172 602.906 327.252 C 602.017 325.974 600.972 324.927 600.24 323.418 C 599.455 321.798 598.463 317.97 598.463 317.97 C 598.463 317.97 597.874 314.457 597.385 312.825 C 596.877 311.133 596.245 309.512 595.481 308.083 C 594.966 307.123 593.64 305.562 593.704 305.562 C 593.704 305.562 592.307 304.653 592.181 304.754 Z"/>
  <path style="stroke: rgb(0, 0, 0); fill: rgb(35, 227, 152);" d="M 628.544 239.327 L 632.627 240.843 L 633.231 257.682 L 631.114 266.438 L 628.846 274.016 C 628.846 274.016 631.114 273.848 631.417 274.016 C 631.72 274.185 636.86 271.322 637.162 271.322 C 637.162 271.322 640.718 268.717 642.757 268.459 C 645.468 268.117 648.163 269.418 650.77 270.312 C 654.42 271.563 657.907 273.365 661.354 275.195 C 669.945 279.756 678.14 285.191 686.452 290.35 C 693.099 294.475 699.632 298.819 706.259 302.98 C 789.255 355.076 649.121 287.285 649.121 287.285 L 678.742 317.461 C 678.742 317.461 679.272 322.635 680.102 325.039 C 681.198 328.21 682.942 331.09 684.789 333.796 C 688.542 339.295 693.881 343.289 697.641 348.783 C 699.245 351.125 701.724 356.36 701.724 356.36 C 701.724 356.36 672.691 334.184 663.47 324.87 C 661.564 322.944 661.212 319.693 660.446 316.956 C 659.773 314.549 660.353 311.636 659.086 309.547 C 657.09 306.257 653.325 304.816 650.166 302.98 C 647.378 301.36 644.485 299.763 641.396 299.106 C 639.366 298.674 637.263 299.143 635.197 299.106 C 632.02 299.05 628.781 299.493 625.671 298.77 C 622.484 298.028 619.43 296.524 616.6 294.729 C 613.508 292.768 610.792 290.122 608.133 287.487 C 606.243 285.614 603.953 283.957 602.841 281.425 C 601.88 279.236 601.777 276.616 601.934 274.185 C 602.051 272.378 602.663 270.634 603.294 268.965 C 603.811 267.598 605.26 265.091 605.26 265.091 C 605.26 265.091 626.277 287.993 626.579 288.329 C 626.881 288.666 608.133 264.081 607.981 263.912 C 607.829 263.744 607.83 260.714 607.83 260.714 L 614.938 261.218 C 614.938 261.218 620.013 261.731 622.194 260.544 C 625.334 258.834 627.166 255.854 628.393 252.631 C 629.321 250.193 629.008 247.364 628.997 244.716 C 628.99 242.912 628.544 239.327 628.544 239.327 Z"/>
  <path style="stroke: rgb(0, 0, 0); fill: rgb(166, 168, 193);" d="M 513.994 199.5 L 512.993 149.455 L 476.711 119.929 L 460.196 122.432 L 398.392 52.62 L 421.162 122.932 L 280.287 11.333 L 438.677 168.722 C 438.677 168.722 441.43 232.029 441.18 232.279 C 440.93 232.529 483.717 233.28 483.717 233.28 C 483.717 233.28 485.056 226.09 486.471 223.02 C 488.76 218.052 490.152 215.714 493.227 212.011 C 495.882 208.814 498.892 206.095 502.483 204.003 C 506.882 201.44 513.994 199.5 513.994 199.5 Z"/>
  <path style="stroke: rgb(0, 0, 0); fill: rgb(137, 145, 220);" d="M 431.52 170.156 L 366.463 128.119 L 366.963 165.652 L 402.995 193.427 L 333.684 186.671 L 296.901 231.21 L 389.984 235.714 L 421.762 233.963 L 422.262 261.487 L 428.518 265.241 L 429.018 312.532 L 433.272 362.076 L 434.523 425.132 L 481.064 331.299 L 475.56 237.466 L 433.022 238.467 L 431.52 170.156 Z"/>
  <path style="stroke: rgb(0, 0, 0); fill: rgb(137, 145, 220);" d="M 416.024 240.869 L 423.031 305.427 L 344.211 349.966 L 317.187 272.147 L 207.59 259.636 L 416.024 240.869 Z"/>
  <path style="stroke: rgb(0, 0, 0); fill: rgb(137, 145, 220);" d="M 418.192 320.289 L 371.151 366.08 L 411.687 377.09 L 418.192 320.289 Z"/>
  <path style="stroke: rgb(0, 0, 0); fill: rgb(166, 168, 193);" d="M 479.497 237.216 L 489.255 358.823 L 510.774 344.811 L 520.533 412.121 L 537.798 445.15 L 549.308 388.6 L 549.308 349.565 L 550.56 327.796 L 556.315 321.54 L 552.561 294.016 L 553.562 274.499 L 560.819 285.258 L 571.578 288.011 L 564.311 276.653 L 579.628 269.83 L 585.824 254.652 L 574.79 267.9 L 561.943 268.898 L 551.811 264.74 L 537.298 343.31 L 531.293 274.749 C 531.293 274.749 521.151 276.674 516.279 275.5 C 510.757 274.17 505.249 272.231 500.765 268.744 C 497.366 266.101 494.115 262.912 491.507 259.486 C 489.107 256.333 487.004 253.811 486.003 249.977 C 484.909 245.788 483.75 237.466 483.75 237.466 L 479.497 237.216 Z"/>
  <path style="stroke: rgb(0, 0, 0); fill: rgb(142, 178, 173);" d="M 518.251 145.931 L 517.129 148.622 L 519.82 156.246 L 548.974 169.477 L 555.701 163.871 L 562.429 164.319 L 562.877 158.04 L 518.251 145.931 Z"/>
</svg>