<?xml version="1.0" encoding="utf-8"?>
<svg xmlns="http://www.w3.org/2000/svg" viewBox="0 0 500 500">
  <path style="stroke: rgb(0, 0, 0); fill: rgb(35, 227, 152);" d="M 255.883 335.451 C 247.13 335.451 239.394 335.527 232.004 339.222 C 206.856 351.796 208.542 393.196 228.233 409.605 C 236.088 416.151 245.693 419.311 255.465 421.754 C 260.898 423.112 274.059 426.005 279.973 423.639 C 282.822 422.5 286.284 422.355 288.561 420.078 C 290.406 418.233 292.048 414.208 292.96 411.699 C 297.434 399.396 300.994 386.015 295.683 372.738 C 291.631 362.608 285.065 354.401 279.554 346.135 C 275.503 340.058 264.423 335.022 256.931 333.357 C 252.692 332.415 248.676 335.242 246.248 335.242"/>
  <path style="stroke: rgb(0, 0, 0); fill: rgb(166, 168, 193);" d="M 238.288 283.712 C 238.288 290.764 238.288 297.816 238.288 304.868 C 238.288 305.419 238.468 311.117 238.288 311.153 C 221.649 314.48 205.876 323.487 196.812 338.593 C 190.792 348.628 193.148 360.271 189.69 370.643 C 188.452 374.357 189.69 380.719 189.69 384.677 C 189.69 404.982 197.144 420.383 213.989 433.485 C 218.668 437.124 223.945 438.525 228.862 441.654 C 236.901 446.77 244.806 449.195 254.417 449.195 C 256.26 449.195 260.832 450.072 262.587 449.195 C 272.297 444.34 286.577 443.724 298.406 436.627 C 305.922 432.117 306.655 425.015 310.137 417.355 C 316.206 404.003 320.176 384.001 314.955 368.339 C 314.3 366.375 315.084 363.646 314.536 361.635 C 312.588 354.494 310.578 347.237 308.042 340.898 C 307.551 339.67 305.74 335.104 304.691 334.404 C 301.608 332.349 299.079 328.503 295.893 326.025 C 291.933 322.946 287.26 321.332 283.115 319.95 C 277.448 318.061 271.783 312.509 265.519 310.943 C 260.923 309.794 257.018 309.267 251.903 309.267 C 251.344 309.267 248.29 311.101 248.133 310.943 C 246.924 309.735 248.395 307.278 247.714 305.916 C 246.831 304.149 247.921 301.929 247.295 300.051 C 246.472 297.582 243.552 286.198 245.41 284.34 C 245.877 283.873 249.284 284.34 250.018 284.34 C 255.261 284.34 259.938 285.235 264.891 286.225 C 276.227 288.493 287.723 288.906 299.035 292.3 C 307.91 294.963 314.487 303.247 323.124 308.429 C 337.681 317.164 341.575 338.874 345.538 354.723 C 350.393 374.143 346.095 392.076 339.882 410.024 C 334.906 424.398 328.96 438.331 318.097 449.195 C 312.366 454.925 295.903 460.371 287.095 461.973 C 277.079 463.794 266.815 464.37 256.512 465.743 C 253.039 466.206 245.417 468.286 241.43 466.791 C 235.278 464.484 227.815 464.157 221.321 463.23 C 214.649 462.277 207.961 459.056 201.63 456.945 C 185.639 451.615 173.202 448.018 160.783 437.255 C 150.716 428.53 147.623 416.673 142.978 405.834 C 138.885 396.284 138.682 386.24 136.694 376.299 C 133.816 361.912 134.067 346.361 140.464 333.566 C 145.116 324.263 156.375 314.626 164.972 307.592 C 173.256 300.814 188.399 299.694 197.231 294.395 C 199.911 292.787 204.371 293.923 207.076 292.3 C 210.761 290.089 215.886 290.514 219.854 288.53 C 226.68 285.117 232.337 282.036 240.383 282.036"/>
  <path style="stroke: rgb(0, 0, 0); fill: rgb(166, 168, 193);" d="M 348.004 192.396 C 333.864 193.228 321.882 186.283 312.711 174.055 C 300.059 157.185 313.549 131.165 331.886 127.09 C 341.488 124.957 359.555 123.943 367.457 129.869 C 380.058 139.32 378.302 162.369 372.459 174.055 C 370.288 178.398 363.996 183.63 360.787 186.838 C 360.295 187.33 356.18 187.695 356.341 189.062 C 357.047 195.066 360.048 203.581 363.011 208.237 C 364.19 210.09 371.398 202.237 372.737 201.567 C 381.531 197.17 388.54 186.696 393.857 177.39 C 396.087 173.488 394.016 168.351 395.525 164.329 C 401.076 149.524 388.939 130.592 383.297 119.309 C 380.301 113.318 370.67 108.905 367.457 105.692 C 360.56 98.796 343.079 104.792 334.109 101.802 C 331.61 100.969 329.657 94.842 328.551 92.631 C 328.234 91.998 325.269 86.609 325.772 86.517 C 353.199 81.531 379.957 90.125 395.802 105.97 C 423.546 133.714 425.948 183.271 393.579 211.016 C 383.629 219.544 370.113 219.115 358.564 222.965 C 354.526 224.311 350.061 222.933 346.059 224.077 C 330.597 228.494 315.825 220.695 303.263 213.517 C 282.063 201.402 269.359 173.995 269.359 148.211 C 269.359 138.547 269.802 128.429 273.25 121.532 C 277.1 113.831 281.3 105.733 286.589 99.856 C 289.37 96.766 291.352 93.081 294.37 92.075 C 296.059 91.512 305.161 84.804 306.597 86.239 C 311.462 91.104 312.066 101.99 317.991 107.916 C 317.104 110.576 308.983 111.922 307.153 113.751 C 302.071 118.834 297.633 126.884 291.869 132.648 C 287.413 137.104 289.09 152.652 289.09 159.882 C 289.09 176.299 295.965 189.268 306.042 199.344 C 310.666 203.968 321.684 202.758 325.494 206.569 C 326.099 207.174 330.098 206.527 330.497 207.125 C 331.133 208.079 345.133 210.08 346.892 209.904 C 347.444 209.849 346.337 203.872 346.337 203.512 C 346.337 200.556 345.312 193.099 346.892 190.729 C 347.263 190.173 347.336 192.396 348.004 192.396 Z"/>
  <path style="stroke: rgb(0, 0, 0); fill: rgb(35, 227, 152);" d="M 107.901 149.044 C 98.304 150.964 94.355 151.752 88.726 157.381 C 75.094 171.013 78.4 195.687 90.393 207.681 C 95.822 213.11 106.34 216.018 114.57 216.018 C 115.882 216.018 121.578 216.791 122.351 216.018 C 131.004 207.365 145.486 202.192 150.419 187.394 C 151.483 184.201 153.89 179.466 152.642 175.723 C 148.819 164.253 141.54 159.477 134.023 153.213 C 131.264 150.914 127.199 150.496 124.297 149.044 C 123.593 148.693 120.555 149.555 120.406 148.211 C 119.547 140.479 119.319 128.733 123.463 124.589 C 126.422 121.63 131.855 124.93 135.968 125.701 C 143.404 127.095 153.278 129.672 157.644 134.038 C 173.196 149.59 181.482 176.246 175.152 201.567 C 172.852 210.767 161.73 215.071 157.922 222.687 C 154.974 228.584 145.281 237.075 138.747 238.527 C 120.393 242.606 92.32 245.734 78.166 231.58 C 73.503 226.918 67.9 217.979 63.715 213.794 C 59.575 209.655 60.658 198.511 57.879 192.952 C 56.158 189.51 59.056 183.635 57.323 180.169 C 51.635 168.793 56.91 149.315 61.492 140.152 C 63.87 135.396 69.042 128.595 73.719 126.257 C 75.83 125.201 79.592 124.275 80.944 122.922 C 82.903 120.963 88.534 123.573 90.949 122.366 C 92.705 121.488 104.801 120.656 106.233 122.088 C 107.991 123.846 106.274 127.768 107.067 130.147 C 109.214 136.588 108.178 146.164 108.178 153.213"/>
</svg>