<svg xmlns="http://www.w3.org/2000/svg" viewBox="0 0 64 64">
  <path d="M 37.2000 16.5000 L 37.1693 16.4975 L 37.1387 16.4951 L 37.1079 16.4931 L 37.0772 16.4913 L 37.0464 16.4897 L 37.0155 16.4883 L 36.9847 16.4873 L 36.9538 16.4864 L 36.9229 16.4858 L 36.8919 16.4854 L 36.8610 16.4853 L 36.8300 16.4855 L 36.7990 16.4858 L 36.7679 16.4864 L 36.7369 16.4873 L 36.7059 16.4884 L 36.6748 16.4898 L 36.6437 16.4914 L 36.6126 16.4932 L 36.5816 16.4953 L 36.5505 16.4977 L 36.5194 16.5003 L 36.4883 16.5031 L 36.4572 16.5062 L 36.4261 16.5096 L 36.3951 16.5131 L 36.3640 16.5170 L 36.3330 16.5211 L 36.3019 16.5254 L 36.2709 16.5300 L 36.2399 16.5348 L 36.2089 16.5399 L 36.1779 16.5452 L 36.1470 16.5508 L 36.1160 16.5566 L 36.0852 16.5627 L 36.0543 16.5690 L 36.0234 16.5756 L 35.9926 16.5824 L 35.9619 16.5894 L 35.9311 16.5967 L 35.9004 16.6043 L 35.8698 16.6121 L 35.8392 16.6202 L 35.8086 16.6285 L 35.7781 16.6370 L 35.7476 16.6458 L 35.7172 16.6549 L 35.6868 16.6642 L 35.6565 16.6737 L 35.6263 16.6835 L 35.5961 16.6935 L 35.5659 16.7038 L 35.5358 16.7143 L 35.5058 16.7250 L 35.4759 16.7361 L 35.4460 16.7473 L 35.4162 16.7588 L 35.3865 16.7705 L 35.3568 16.7825 L 35.3272 16.7947 L 35.2977 16.8072 L 35.2683 16.8199 L 35.2389 16.8328 L 35.2097 16.8460 L 35.1805 16.8595 L 35.1514 16.8731 L 35.1224 16.8870 L 35.0935 16.9012 L 35.0647 16.9155 L 35.0360 16.9302 L 35.0074 16.9450 L 34.9789 16.9601 L 34.9505 16.9754 L 34.9222 16.9910 L 34.8940 17.0068 L 34.8659 17.0228 L 34.8379 17.0390 L 34.8100 17.0555 L 34.7822 17.0722 L 34.7546 17.0892 L 34.7271 17.1064 L 34.6997 17.1238 L 34.6724 17.1414 L 34.6452 17.1593 L 34.6182 17.1773 L 34.5913 17.1957 L 34.5645 17.2142 L 34.5378 17.2329 L 34.5113 17.2519 L 34.4849 17.2711 L 34.4586 17.2905 L 34.4325 17.3102 L 34.4065 17.3300 L 34.3807 17.3501 L 34.3550 17.3704 L 34.3295 17.3909 L 34.3041 17.4116 L 34.2788 17.4326 L 34.2537 17.4537 L 34.2288 17.4751 L 34.2040 17.4967 L 34.1793 17.5184 L 34.1549 17.5404 L 34.1305 17.5626 L 34.1064 17.5850 L 34.0824 17.6076 L 34.0585 17.6304 L 34.0349 17.6534 L 34.0114 17.6766 L 33.9880 17.7001 L 33.9649 17.7237 L 33.9419 17.7475 L 33.9191 17.7715 L 33.8964 17.7957 L 33.8740 17.8201 L 33.8517 17.8447 L 33.8296 17.8694 L 33.8077 17.8944 L 33.7859 17.9195 L 33.7644 17.9449 L 33.7430 17.9704 L 33.7219 17.9961 L 33.7009 18.0220 L 33.6801 18.0481 L 33.6595 18.0743 L 33.6391 18.1008 L 33.6189 18.1274 L 33.5989 18.1542 L 33.5791 18.1811 L 33.5595 18.2083 L 33.5401 18.2356 L 33.5209 18.2630 L 33.5019 18.2907 L 33.4832 18.3185 L 33.4646 18.3464 L 33.4462 18.3746 L 33.4281 18.4029 L 33.4102 18.4313 L 33.3924 18.4599 L 33.3749 18.4887 L 33.3576 18.5176 L 33.3406 18.5467 L 33.3237 18.5760 L 33.3071 18.6053 L 33.2907 18.6349 L 33.2745 18.6646 L 33.2585 18.6944 L 33.2428 18.7244 L 33.2273 18.7545 L 33.2120 18.7847 L 33.1970 18.8151 L 33.1822 18.8456 L 33.1676 18.8763 L 33.1533 18.9071 L 33.1392 18.9380 L 33.1253 18.9691 L 33.1116 19.0002 L 33.0983 19.0316 L 33.0851 19.0630 L 33.0722 19.0945 L 33.0595 19.1262 L 33.0471 19.1580 L 33.0349 19.1899 L 33.0229 19.2219 L 33.0112 19.2541 L 32.9998 19.2863 L 32.9886 19.3187 L 32.9776 19.3512 L 32.9669 19.3837 L 32.9565 19.4164 L 32.9463 19.4492 L 32.9364 19.4821 L 32.9267 19.5150 L 32.9172 19.5481 L 32.9081 19.5813 L 32.8991 19.6145 L 32.8905 19.6479 L 32.8821 19.6813 L 32.8739 19.7148 L 32.8660 19.7484 L 32.8584 19.7821 L 32.8511 19.8159 L 32.8440 19.8497 L 32.8371 19.8836 L 32.8305 19.9176 L 32.8242 19.9517 L 32.8182 19.9858 L 32.8124 20.0200 L 32.8069 20.0543 L 32.8017 20.0886 L 32.7967 20.1230 L 32.7920 20.1574 L 32.7876 20.1919 L 32.7834 20.2265 L 32.7795 20.2611 L 32.7759 20.2957 L 32.7725 20.3304 L 32.7695 20.3652 L 32.7667 20.4000 L 32.7642 20.4498 L 32.7621 20.4996 L 32.7604 20.5494 L 32.7591 20.5993 L 32.7582 20.6492 L 32.7577 20.6991 L 32.7576 20.7490 L 32.7579 20.7990 L 32.7585 20.8490 L 32.7596 20.8990 L 32.7611 20.9490 L 32.7629 20.9990 L 32.7652 21.0491 L 32.7678 21.0991 L 32.7708 21.1491 L 32.7743 21.1991 L 32.7781 21.2491 L 32.7823 21.2991 L 32.7869 21.3491 L 32.7920 21.3991 L 32.7974 21.4490 L 32.8032 21.4990 L 32.8094 21.5489 L 32.8160 21.5987 L 32.8230 21.6486 L 32.8304 21.6984 L 32.8381 21.7481 L 32.8463 21.7979 L 32.8549 21.8475 L 32.8639 21.8972 L 32.8732 21.9467 L 32.8830 21.9963 L 32.8931 22.0457 L 32.9037 22.0951 L 32.9146 22.1445 L 32.9260 22.1937 L 32.9377 22.2429 L 32.9498 22.2921 L 32.9623 22.3411 L 32.9752 22.3901 L 32.9885 22.4390 L 33.0022 22.4878 L 33.0162 22.5365 L 33.0307 22.5851 L 33.0455 22.6336 L 33.0608 22.6820 L 33.0764 22.7304 L 33.0924 22.7786 L 33.1088 22.8267 L 33.1256 22.8747 L 33.1427 22.9226 L 33.1603 22.9703 L 33.1782 23.0180 L 33.1965 23.0655 L 33.2152 23.1129 L 33.2343 23.1602 L 33.2538 23.2073 L 33.2736 23.2543 L 33.2938 23.3012 L 33.3144 23.3479 L 33.3354 23.3945 L 33.3567 23.4409 L 33.3784 23.4872 L 33.4005 23.5333 L 33.4230 23.5793 L 33.4458 23.6251 L 33.4690 23.6708 L 33.4926 23.7162 L 33.5165 23.7615 L 33.5408 23.8067 L 33.5655 23.8517 L 33.5905 23.8964 L 33.6159 23.9411 L 33.6416 23.9855 L 33.6677 24.0297 L 33.6942 24.0738 L 33.7210 24.1176 L 33.7482 24.1613 L 33.7757 24.2048 L 33.8036 24.2480 L 33.8319 24.2911 L 33.8605 24.3340 L 33.8894 24.3766 L 33.9187 24.4190 L 33.9483 24.4613 L 33.9783 24.5033 L 34.0086 24.5450 L 34.0393 24.5866 L 34.0703 24.6279 L 34.1016 24.6690 L 34.1333 24.7099 L 34.1653 24.7506 L 34.1976 24.7910 L 34.2303 24.8311 L 34.2633 24.8710 L 34.2966 24.9107 L 34.3302 24.9501 L 34.3642 24.9893 L 34.3985 25.0282 L 34.4331 25.0669 L 34.4680 25.1053 L 34.5033 25.1435 L 34.5388 25.1813 L 34.5747 25.2190 L 34.6109 25.2563 L 34.6473 25.2934 L 34.6841 25.3302 L 34.7212 25.3667 L 34.7586 25.4030 L 34.7963 25.4390 L 34.8343 25.4746 L 34.8726 25.5100 L 34.9112 25.5452 L 34.9501 25.5800 L 34.9892 25.6145 L 35.0287 25.6487 L 35.0684 25.6827 L 35.1084 25.7163 L 35.1487 25.7496 L 35.1893 25.7827 L 35.2301 25.8154 L 35.2712 25.8478 L 35.3126 25.8799 L 35.3543 25.9117 L 35.3962 25.9431 L 35.4384 25.9743 L 35.4808 26.0051 L 35.5235 26.0356 L 35.5665 26.0658 L 35.6097 26.0956 L 35.6532 26.1252 L 35.6969 26.1543 L 35.7408 26.1832 L 35.7851 26.2117 L 35.8295 26.2399 L 35.8742 26.2677 L 35.9191 26.2953 L 35.9642 26.3224 L 36.0096 26.3492 L 36.0552 26.3757 L 36.1011 26.4018 L 36.1471 26.4276 L 36.1934 26.4530 L 36.2399 26.4780 L 36.2866 26.5027 L 36.3335 26.5271 L 36.3807 26.5510 L 36.4280 26.5747 L 36.4755 26.5979 L 36.5233 26.6208 L 36.5712 26.6433 L 36.6193 26.6655 L 36.6677 26.6872 L 36.7162 26.7086 L 36.7649 26.7297 L 36.8137 26.7503 L 36.8628 26.7706 L 36.9120 26.7905 L 36.9615 26.8100 L 37.0110 26.8291 L 37.0608 26.8479 L 37.1107 26.8663 L 37.1608 26.8842 L 37.2110 26.9018 L 37.2614 26.9190 L 37.3120 26.9358 L 37.3627 26.9523 L 37.4136 26.9683 L 37.4645 26.9839 L 37.5157 26.9992 L 37.5670 27.0140 L 37.6184 27.0284 L 37.6699 27.0425 L 37.7216 27.0561 L 37.7734 27.0693 L 37.8253 27.0822 L 37.8773 27.0946 L 37.9295 27.1066 L 37.9818 27.1182 L 38.0342 27.1294 L 38.0866 27.1403 L 38.1392 27.1506 L 38.1919 27.1606 L 38.2447 27.1702 L 38.2976 27.1793 L 38.3506 27.1881 L 38.4037 27.1964 L 38.4568 27.2043 L 38.5100 27.2118 L 38.5633 27.2189 L 38.6167 27.2256 L 38.6702 27.2318 L 38.7237 27.2377 L 38.7773 27.2431 L 38.8309 27.2480 L 38.8846 27.2526 L 38.9384 27.2568 L 38.9922 27.2605 L 39.0461 27.2638 L 39.1000 27.2667 L 39.1783 27.2690 L 39.2566 27.2708 L 39.3350 27.2719 L 39.4134 27.2724 L 39.4918 27.2723 L 39.5702 27.2716 L 39.6487 27.2702 L 39.7272 27.2683 L 39.8056 27.2657 L 39.8841 27.2625 L 39.9625 27.2587 L 40.0410 27.2543 L 40.1194 27.2492 L 40.1978 27.2436 L 40.2762 27.2373 L 40.3545 27.2304 L 40.4328 27.2229 L 40.5111 27.2148 L 40.5893 27.2060 L 40.6675 27.1966 L 40.7456 27.1867 L 40.8236 27.1760 L 40.9016 27.1648 L 40.9796 27.1530 L 41.0574 27.1405 L 41.1352 27.1275 L 41.2129 27.1138 L 41.2904 27.0995 L 41.3679 27.0846 L 41.4453 27.0691 L 41.5226 27.0529 L 41.5998 27.0362 L 41.6769 27.0188 L 41.7539 27.0009 L 41.8307 26.9823 L 41.9074 26.9631 L 41.9840 26.9433 L 42.0604 26.9229 L 42.1367 26.9019 L 42.2128 26.8803 L 42.2888 26.8581 L 42.3647 26.8353 L 42.4403 26.8119 L 42.5158 26.7878 L 42.5912 26.7632 L 42.6663 26.7380 L 42.7413 26.7122 L 42.8161 26.6858 L 42.8907 26.6588 L 42.9651 26.6312 L 43.0393 26.6030 L 43.1133 26.5742 L 43.1871 26.5448 L 43.2607 26.5149 L 43.3340 26.4844 L 43.4072 26.4532 L 43.4801 26.4215 L 43.5528 26.3892 L 43.6252 26.3564 L 43.6974 26.3229 L 43.7694 26.2889 L 43.8411 26.2543 L 43.9125 26.2191 L 43.9837 26.1834 L 44.0546 26.1471 L 44.1253 26.1102 L 44.1957 26.0728 L 44.2658 26.0348 L 44.3356 25.9963 L 44.4051 25.9571 L 44.4743 25.9175 L 44.5433 25.8772 L 44.6119 25.8365 L 44.6803 25.7951 L 44.7483 25.7533 L 44.8160 25.7109 L 44.8834 25.6679 L 44.9505 25.6244 L 45.0172 25.5804 L 45.0837 25.5358 L 45.1497 25.4907 L 45.2155 25.4451 L 45.2809 25.3989 L 45.3459 25.3522 L 45.4106 25.3050 L 45.4750 25.2573 L 45.5390 25.2090 L 45.6026 25.1603 L 45.6658 25.1110 L 45.7287 25.0612 L 45.7912 25.0109 L 45.8533 24.9601 L 45.9150 24.9088 L 45.9764 24.8571 L 46.0373 24.8048 L 46.0979 24.7520 L 46.1580 24.6987 L 46.2178 24.6450 L 46.2771 24.5908 L 46.3361 24.5361 L 46.3946 24.4809 L 46.4527 24.4252 L 46.5103 24.3691 L 46.5676 24.3125 L 46.6244 24.2554 L 46.6807 24.1979 L 46.7367 24.1400 L 46.7921 24.0815 L 46.8472 24.0227 L 46.9018 23.9633 L 46.9559 23.9036 L 47.0096 23.8434 L 47.0628 23.7827 L 47.1155 23.7217 L 47.1678 23.6602 L 47.2196 23.5982 L 47.2710 23.5359 L 47.3218 23.4731 L 47.3722 23.4099 L 47.4221 23.3464 L 47.4715 23.2824 L 47.5204 23.2180 L 47.5688 23.1532 L 47.6167 23.0880 L 47.6641 23.0224 L 47.7110 22.9564 L 47.7574 22.8900 L 47.8033 22.8233 L 47.8487 22.7562 L 47.8936 22.6887 L 47.9379 22.6208 L 47.9817 22.5526 L 48.0250 22.4840 L 48.0678 22.4151 L 48.1100 22.3458 L 48.1517 22.2762 L 48.1928 22.2062 L 48.2334 22.1359 L 48.2735 22.0652 L 48.3130 21.9943 L 48.3520 21.9230 L 48.3904 21.8513 L 48.4283 21.7794 L 48.4656 21.7071 L 48.5023 21.6345 L 48.5385 21.5616 L 48.5741 21.4885 L 48.6092 21.4150 L 48.6436 21.3412 L 48.6776 21.2672 L 48.7109 21.1928 L 48.7436 21.1182 L 48.7758 21.0433 L 48.8074 20.9681 L 48.8384 20.8927 L 48.8689 20.8170 L 48.8987 20.7411 L 48.9279 20.6649 L 48.9566 20.5884 L 48.9846 20.5117 L 49.0121 20.4348 L 49.0390 20.3576 L 49.0652 20.2802 L 49.0909 20.2026 L 49.1160 20.1248 L 49.1404 20.0467 L 49.1642 19.9685 L 49.1875 19.8900 L 49.2101 19.8114 L 49.2321 19.7325 L 49.2535 19.6535 L 49.2743 19.5742 L 49.2944 19.4948 L 49.3139 19.4152 L 49.3329 19.3354 L 49.3511 19.2555 L 49.3688 19.1754 L 49.3859 19.0952 L 49.4023 19.0148 L 49.4181 18.9342 L 49.4332 18.8535 L 49.4477 18.7727 L 49.4616 18.6917 L 49.4749 18.6107 L 49.4875 18.5294 L 49.4995 18.4481 L 49.5108 18.3667 L 49.5215 18.2851 L 49.5316 18.2035 L 49.5410 18.1217 L 49.5498 18.0399 L 49.5580 17.9580 L 49.5655 17.8760 L 49.5724 17.7939 L 49.5786 17.7117 L 49.5842 17.6295 L 49.5891 17.5472 L 49.5934 17.4648 L 49.5970 17.3824 L 49.6000 17.3000 L 49.6022 17.1782 L 49.6034 17.0565 L 49.6037 16.9346 L 49.6030 16.8128 L 49.6014 16.6909 L 49.5988 16.5691 L 49.5952 16.4472 L 49.5907 16.3254 L 49.5852 16.2036 L 49.5788 16.0818 L 49.5714 15.9600 L 49.5631 15.8383 L 49.5538 15.7166 L 49.5435 15.5950 L 49.5323 15.4735 L 49.5201 15.3520 L 49.5070 15.2306 L 49.4929 15.1093 L 49.4778 14.9880 L 49.4618 14.8669 L 49.4449 14.7459 L 49.4270 14.6250 L 49.4081 14.5042 L 49.3883 14.3836 L 49.3676 14.2631 L 49.3458 14.1427 L 49.3232 14.0225 L 49.2996 13.9025 L 49.2750 13.7826 L 49.2495 13.6629 L 49.2231 13.5434 L 49.1957 13.4241 L 49.1674 13.3050 L 49.1381 13.1860 L 49.1079 13.0673 L 49.0767 12.9489 L 49.0447 12.8306 L 49.0116 12.7126 L 48.9777 12.5948 L 48.9428 12.4773 L 48.9070 12.3600 L 48.8703 12.2430 L 48.8326 12.1263 L 48.7940 12.0098 L 48.7545 11.8937 L 48.7141 11.7778 L 48.6728 11.6622 L 48.6305 11.5469 L 48.5874 11.4320 L 48.5433 11.3174 L 48.4983 11.2031 L 48.4525 11.0891 L 48.4057 10.9755 L 48.3580 10.8623 L 48.3094 10.7494 L 48.2599 10.6368 L 48.2096 10.5247 L 48.1583 10.4129 L 48.1062 10.3015 L 48.0532 10.1905 L 47.9993 10.0799 L 47.9445 9.9697 L 47.8888 9.8600 L 47.8323 9.7506 L 47.7749 9.6417 L 47.7167 9.5332 L 47.6576 9.4251 L 47.5976 9.3176 L 47.5368 9.2104 L 47.4751 9.1037 L 47.4126 8.9975 L 47.3492 8.8918 L 47.2850 8.7866 L 47.2199 8.6818 L 47.1541 8.5775 L 47.0874 8.4738 L 47.0198 8.3705 L 46.9515 8.2678 L 46.8823 8.1656 L 46.8124 8.0639 L 46.7416 7.9628 L 46.6700 7.8622 L 46.5976 7.7621 L 46.5244 7.6626 L 46.4504 7.5637 L 46.3757 7.4653 L 46.3001 7.3676 L 46.2238 7.2703 L 46.1467 7.1737 L 46.0688 7.0777 L 45.9901 6.9823 L 45.9107 6.8874 L 45.8306 6.7932 L 45.7497 6.6996 L 45.6680 6.6066 L 45.5856 6.5143 L 45.5025 6.4226 L 45.4186 6.3315 L 45.3340 6.2411 L 45.2487 6.1513 L 45.1627 6.0622 L 45.0759 5.9737 L 44.9885 5.8859 L 44.9003 5.7988 L 44.8115 5.7124 L 44.7219 5.6266 L 44.6317 5.5416 L 44.5408 5.4572 L 44.4492 5.3736 L 44.3569 5.2907 L 44.2640 5.2084 L 44.1704 5.1269 L 44.0762 5.0461 L 43.9813 4.9661 L 43.8858 4.8868 L 43.7897 4.8082 L 43.6929 4.7303 L 43.5954 4.6533 L 43.4974 4.5769 L 43.3988 4.5014 L 43.2995 4.4265 L 43.1996 4.3525 L 43.0992 4.2792 L 42.9982 4.2068 L 42.8965 4.1351 L 42.7943 4.0642 L 42.6916 3.9940 L 42.5882 3.9247 L 42.4843 3.8562 L 42.3799 3.7885 L 42.2749 3.7216 L 42.1693 3.6555 L 42.0633 3.5903 L 41.9567 3.5258 L 41.8495 3.4622 L 41.7419 3.3994 L 41.6338 3.3375 L 41.5251 3.2764 L 41.4160 3.2162 L 41.3063 3.1568 L 41.1962 3.0982 L 41.0856 3.0405 L 40.9746 2.9837 L 40.8631 2.9277 L 40.7511 2.8726 L 40.6387 2.8184 L 40.5258 2.7651 L 40.4125 2.7126 L 40.2988 2.6610 L 40.1847 2.6103 L 40.0701 2.5605 L 39.9551 2.5116 L 39.8398 2.4636 L 39.7240 2.4165 L 39.6079 2.3702 L 39.4914 2.3249 L 39.3745 2.2805 L 39.2572 2.2371 L 39.1396 2.1945 L 39.0216 2.1528 L 38.9033 2.1121 L 38.7847 2.0723 L 38.6657 2.0334 L 38.5464 1.9955 L 38.4268 1.9585 L 38.3068 1.9224 L 38.1866 1.8872 L 38.0661 1.8530 L 37.9453 1.8198 L 37.8242 1.7875 L 37.7029 1.7561 L 37.5813 1.7257 L 37.4594 1.6962 L 37.3373 1.6677 L 37.2149 1.6401 L 37.0924 1.6135 L 36.9695 1.5879 L 36.8465 1.5632 L 36.7233 1.5395 L 36.5998 1.5167 L 36.4762 1.4950 L 36.3524 1.4741 L 36.2283 1.4543 L 36.1042 1.4354 L 35.9798 1.4175 L 35.8553 1.4006 L 35.7307 1.3847 L 35.6059 1.3697 L 35.4809 1.3557 L 35.3559 1.3427 L 35.2307 1.3306 L 35.1054 1.3196 L 34.9800 1.3095 L 34.8545 1.3004 L 34.7289 1.2924 L 34.6033 1.2852 L 34.4776 1.2791 L 34.3518 1.2740 L 34.2259 1.2698 L 34.1000 1.2667 L 33.9104 1.2647 L 33.7208 1.2643 L 33.5312 1.2654 L 33.3416 1.2679 L 33.1520 1.2719 L 32.9624 1.2775 L 32.7728 1.2845 L 32.5833 1.2930 L 32.3938 1.3030 L 32.2044 1.3145 L 32.0151 1.3275 L 31.8258 1.3419 L 31.6367 1.3579 L 31.4476 1.3753 L 31.2587 1.3942 L 31.0699 1.4146 L 30.8813 1.4365 L 30.6928 1.4599 L 30.5045 1.4848 L 30.3164 1.5111 L 30.1284 1.5389 L 29.9407 1.5682 L 29.7532 1.5990 L 29.5659 1.6313 L 29.3788 1.6650 L 29.1920 1.7002 L 29.0055 1.7369 L 28.8192 1.7750 L 28.6332 1.8146 L 28.4475 1.8557 L 28.2621 1.8982 L 28.0771 1.9422 L 27.8923 1.9877 L 27.7079 2.0346 L 27.5239 2.0829 L 27.3402 2.1327 L 27.1569 2.1840 L 26.9740 2.2367 L 26.7915 2.2908 L 26.6094 2.3464 L 26.4278 2.4034 L 26.2465 2.4618 L 26.0657 2.5217 L 25.8854 2.5830 L 25.7055 2.6457 L 25.5261 2.7099 L 25.3472 2.7754 L 25.1688 2.8424 L 24.9909 2.9108 L 24.8135 2.9805 L 24.6367 3.0517 L 24.4604 3.1243 L 24.2847 3.1982 L 24.1095 3.2736 L 23.9349 3.3503 L 23.7609 3.4284 L 23.5875 3.5079 L 23.4148 3.5887 L 23.2426 3.6709 L 23.0711 3.7545 L 22.9002 3.8394 L 22.7299 3.9257 L 22.5604 4.0133 L 22.3915 4.1022 L 22.2232 4.1925 L 22.0557 4.2841 L 21.8889 4.3771 L 21.7228 4.4713 L 21.5575 4.5669 L 21.3928 4.6638 L 21.2290 4.7620 L 21.0658 4.8614 L 20.9035 4.9622 L 20.7419 5.0642 L 20.5811 5.1676 L 20.4211 5.2722 L 20.2620 5.3780 L 20.1036 5.4851 L 19.9461 5.5935 L 19.7894 5.7031 L 19.6335 5.8140 L 19.4786 5.9261 L 19.3245 6.0394 L 19.1712 6.1539 L 19.0189 6.2697 L 18.8674 6.3866 L 18.7169 6.5048 L 18.5673 6.6241 L 18.4186 6.7447 L 18.2708 6.8664 L 18.1240 6.9893 L 17.9781 7.1133 L 17.8332 7.2385 L 17.6893 7.3648 L 17.5463 7.4923 L 17.4044 7.6209 L 17.2634 7.7507 L 17.1234 7.8815 L 16.9845 8.0135 L 16.8466 8.1466 L 16.7097 8.2808 L 16.5739 8.4160 L 16.4391 8.5523 L 16.3054 8.6897 L 16.1727 8.8282 L 16.0412 8.9677 L 15.9107 9.1083 L 15.7813 9.2499 L 15.6530 9.3925 L 15.5258 9.5361 L 15.3998 9.6808 L 15.2748 9.8265 L 15.1510 9.9731 L 15.0284 10.1207 L 14.9069 10.2693 L 14.7865 10.4189 L 14.6673 10.5694 L 14.5493 10.7209 L 14.4325 10.8733 L 14.3168 11.0267 L 14.2024 11.1810 L 14.0891 11.3361 L 13.9771 11.4922 L 13.8663 11.6492 L 13.7567 11.8070 L 13.6484 11.9658 L 13.5412 12.1254 L 13.4354 12.2858 L 13.3307 12.4471 L 13.2274 12.6092 L 13.1253 12.7722 L 13.0244 12.9360 L 12.9249 13.1005 L 12.8266 13.2659 L 12.7297 13.4320 L 12.6340 13.5990 L 12.5396 13.7667 L 12.4466 13.9351 L 12.3548 14.1043 L 12.2644 14.2742 L 12.1753 14.4449 L 12.0875 14.6162 L 12.0011 14.7883 L 11.9161 14.9610 L 11.8323 15.1345 L 11.7500 15.3086 L 11.6690 15.4833 L 11.5893 15.6588 L 11.5110 15.8348 L 11.4342 16.0115 L 11.3586 16.1888 L 11.2845 16.3667 L 11.2118 16.5452 L 11.1405 16.7243 L 11.0705 16.9040 L 11.0020 17.0842 L 10.9349 17.2650 L 10.8692 17.4463 L 10.8049 17.6282 L 10.7421 17.8105 L 10.6806 17.9934 L 10.6206 18.1768 L 10.5621 18.3607 L 10.5049 18.5450 L 10.4493 18.7298 L 10.3950 18.9151 L 10.3423 19.1007 L 10.2909 19.2869 L 10.2411 19.4734 L 10.1927 19.6604 L 10.1457 19.8477 L 10.1003 20.0354 L 10.0563 20.2235 L 10.0137 20.4120 L 9.9727 20.6008 L 9.9331 20.7899 L 9.8950 20.9794 L 9.8584 21.1692 L 9.8233 21.3593 L 9.7897 21.5496 L 9.7576 21.7403 L 9.7269 21.9312 L 9.6978 22.1224 L 9.6702 22.3138 L 9.6440 22.5054 L 9.6194 22.6973 L 9.5963 22.8894 L 9.5747 23.0817 L 9.5546 23.2741 L 9.5360 23.4668 L 9.5189 23.6596 L 9.5033 23.8525 L 9.4892 24.0456 L 9.4767 24.2388 L 9.4657 24.4321 L 9.4562 24.6255 L 9.4482 24.8190 L 9.4417 25.0126 L 9.4368 25.2063 L 9.4333 25.4000 L 9.3318 25.6974 L 9.3327 25.9949 L 9.3358 26.2923 L 9.3414 26.5898 L 9.3492 26.8872 L 9.3594 27.1845 L 9.3719 27.4818 L 9.3868 27.7790 L 9.4040 28.0761 L 9.4235 28.3731 L 9.4453 28.6699 L 9.4695 28.9666 L 9.4961 29.2631 L 9.5249 29.5594 L 9.5561 29.8555 L 9.5896 30.1513 L 9.6254 30.4469 L 9.6636 30.7422 L 9.7041 31.0373 L 9.7469 31.3320 L 9.7920 31.6264 L 9.8394 31.9205 L 9.8891 32.2142 L 9.9412 32.5075 L 9.9955 32.8004 L 10.0522 33.0929 L 10.1112 33.3850 L 10.1724 33.6766 L 10.2360 33.9678 L 10.3018 34.2585 L 10.3699 34.5486 L 10.4403 34.8383 L 10.5130 35.1274 L 10.5880 35.4159 L 10.6652 35.7039 L 10.7447 35.9912 L 10.8264 36.2780 L 10.9105 36.5641 L 10.9967 36.8496 L 11.0852 37.1344 L 11.1760 37.4185 L 11.2689 37.7020 L 11.3641 37.9847 L 11.4616 38.2666 L 11.5612 38.5478 L 11.6631 38.8283 L 11.7672 39.1079 L 11.8735 39.3868 L 11.9819 39.6648 L 12.0926 39.9420 L 12.2054 40.2183 L 12.3204 40.4937 L 12.4376 40.7683 L 12.5570 41.0419 L 12.6785 41.3147 L 12.8021 41.5864 L 12.9279 41.8572 L 13.0558 42.1271 L 13.1858 42.3959 L 13.3180 42.6637 L 13.4523 42.9305 L 13.5886 43.1963 L 13.7271 43.4610 L 13.8676 43.7246 L 14.0103 43.9872 L 14.1549 44.2486 L 14.3017 44.5089 L 14.4505 44.7680 L 14.6013 45.0260 L 14.7542 45.2828 L 14.9091 45.5384 L 15.0660 45.7929 L 15.2249 46.0460 L 15.3858 46.2980 L 15.5487 46.5487 L 15.7136 46.7981 L 15.8804 47.0463 L 16.0492 47.2931 L 16.2200 47.5387 L 16.3926 47.7829 L 16.5672 48.0257 L 16.7437 48.2672 L 16.9222 48.5073 L 17.1025 48.7460 L 17.2847 48.9834 L 17.4687 49.2192 L 17.6546 49.4537 L 17.8424 49.6867 L 18.0320 49.9182 L 18.2235 50.1483 L 18.4167 50.3769 L 18.6118 50.6039 L 18.8086 50.8294 L 19.0072 51.0534 L 19.2076 51.2759 L 19.4098 51.4968 L 19.6137 51.7161 L 19.8193 51.9338 L 20.0266 52.1499 L 20.2357 52.3643 L 20.4464 52.5772 L 20.6588 52.7884 L 20.8729 52.9979 L 21.0886 53.2058 L 21.3060 53.4120 L 21.5250 53.6164 L 21.7456 53.8192 L 21.9679 54.0202 L 22.1917 54.2195 L 22.4171 54.4171 L 22.6440 54.6129 L 22.8725 54.8069 L 23.1025 54.9991 L 23.3341 55.1895 L 23.5671 55.3782 L 23.8017 55.5650 L 24.0377 55.7499 L 24.2752 55.9330 L 24.5141 56.1143 L 24.7544 56.2937 L 24.9962 56.4712 L 25.2394 56.6468 L 25.4840 56.8205 L 25.7299 56.9923 L 25.9772 57.1621 L 26.2259 57.3301 L 26.4758 57.4961 L 26.7271 57.6601 L 26.9797 57.8221 L 27.2336 57.9822 L 27.4887 58.1403 L 27.7451 58.2964 L 28.0027 58.4505 L 28.2616 58.6026 L 28.5216 58.7526 L 28.7829 58.9006 L 29.0453 59.0466 L 29.3089 59.1905 L 29.5736 59.3323 L 29.8394 59.4721 L 30.1063 59.6098 L 30.3744 59.7454 L 30.6435 59.8789 L 30.9137 60.0102 L 31.1849 60.1395 L 31.4571 60.2666 L 31.7304 60.3917 L 32.0046 60.5145 L 32.2798 60.6352 L 32.5560 60.7538 L 32.8331 60.8702 L 33.1111 60.9844 L 33.3901 61.0964 L 33.6699 61.2063 L 33.9506 61.3140 L 34.2322 61.4194 L 34.5146 61.5227 L 34.7978 61.6237 L 35.0819 61.7225 L 35.3667 61.8191 L 35.6523 61.9135 L 35.9386 62.0056 L 36.2257 62.0955 L 36.5135 62.1831 L 36.8020 62.2685 L 37.0912 62.3516 L 37.3810 62.4324 L 37.6715 62.5109 L 37.9626 62.5872 L 38.2544 62.6612 L 38.5467 62.7329 L 38.8396 62.8023 L 39.1330 62.8695 L 39.4270 62.9343 L 39.7215 62.9968 L 40.0165 63.0570 L 40.3120 63.1148 L 40.6080 63.1704 L 40.9044 63.2236 L 41.2013 63.2746 L 41.4985 63.3231 L 41.7962 63.3694 L 42.0942 63.4133 L 42.3926 63.4549 L 42.6913 63.4941 L 42.9903 63.5310 L 43.2896 63.5655 L 43.5893 63.5977 L 43.8891 63.6276 L 44.1893 63.6550 L 44.4896 63.6802 L 44.7902 63.7029 L 45.0909 63.7233 L 45.3919 63.7414 L 45.6929 63.7571 L 45.9942 63.7704 L 46.2955 63.7813 L 46.5969 63.7899 L 46.8984 63.7961 L 47.2000 63.8000 A 4.0000 4.0000 0 0 0 47.2000 55.8000 L 46.9612 55.8017 L 46.7224 55.8016 L 46.4836 55.7996 L 46.2448 55.7957 L 46.0060 55.7899 L 45.7672 55.7822 L 45.5285 55.7727 L 45.2898 55.7613 L 45.0512 55.7480 L 44.8128 55.7329 L 44.5744 55.7158 L 44.3361 55.6969 L 44.0980 55.6762 L 43.8600 55.6535 L 43.6222 55.6290 L 43.3845 55.6026 L 43.1471 55.5744 L 42.9098 55.5442 L 42.6728 55.5123 L 42.4360 55.4784 L 42.1995 55.4427 L 41.9633 55.4051 L 41.7273 55.3657 L 41.4916 55.3244 L 41.2562 55.2813 L 41.0212 55.2363 L 40.7865 55.1894 L 40.5522 55.1407 L 40.3182 55.0902 L 40.0846 55.0378 L 39.8514 54.9836 L 39.6186 54.9276 L 39.3862 54.8697 L 39.1543 54.8100 L 38.9229 54.7485 L 38.6919 54.6851 L 38.4614 54.6199 L 38.2314 54.5530 L 38.0019 54.4842 L 37.7729 54.4136 L 37.5445 54.3412 L 37.3166 54.2670 L 37.0893 54.1910 L 36.8626 54.1132 L 36.6365 54.0336 L 36.4110 53.9522 L 36.1861 53.8691 L 35.9619 53.7842 L 35.7383 53.6975 L 35.5154 53.6091 L 35.2932 53.5189 L 35.0716 53.4270 L 34.8508 53.3333 L 34.6307 53.2379 L 34.4113 53.1407 L 34.1927 53.0419 L 33.9749 52.9413 L 33.7578 52.8389 L 33.5415 52.7349 L 33.3261 52.6292 L 33.1114 52.5217 L 32.8976 52.4126 L 32.6846 52.3018 L 32.4725 52.1893 L 32.2612 52.0751 L 32.0509 51.9593 L 31.8414 51.8418 L 31.6328 51.7226 L 31.4252 51.6018 L 31.2185 51.4794 L 31.0128 51.3554 L 30.8080 51.2297 L 30.6042 51.1024 L 30.4014 50.9735 L 30.1996 50.8430 L 29.9987 50.7109 L 29.7990 50.5772 L 29.6002 50.4419 L 29.4026 50.3051 L 29.2059 50.1667 L 29.0104 50.0268 L 28.8159 49.8853 L 28.6226 49.7423 L 28.4303 49.5977 L 28.2392 49.4516 L 28.0492 49.3041 L 27.8604 49.1550 L 27.6727 49.0044 L 27.4862 48.8524 L 27.3009 48.6988 L 27.1168 48.5438 L 26.9339 48.3874 L 26.7522 48.2295 L 26.5717 48.0702 L 26.3925 47.9094 L 26.2145 47.7473 L 26.0378 47.5837 L 25.8624 47.4187 L 25.6882 47.2523 L 25.5154 47.0846 L 25.3439 46.9155 L 25.1736 46.7450 L 25.0047 46.5732 L 24.8372 46.4001 L 24.6710 46.2256 L 24.5061 46.0498 L 24.3427 45.8727 L 24.1806 45.6943 L 24.0199 45.5147 L 23.8606 45.3337 L 23.7027 45.1515 L 23.5463 44.9681 L 23.3912 44.7834 L 23.2377 44.5975 L 23.0855 44.4103 L 22.9349 44.2220 L 22.7857 44.0324 L 22.6380 43.8417 L 22.4917 43.6498 L 22.3470 43.4568 L 22.2038 43.2626 L 22.0621 43.0672 L 21.9219 42.8708 L 21.7833 42.6732 L 21.6462 42.4745 L 21.5106 42.2748 L 21.3766 42.0739 L 21.2442 41.8720 L 21.1134 41.6691 L 20.9842 41.4651 L 20.8565 41.2601 L 20.7305 41.0540 L 20.6060 40.8470 L 20.4832 40.6390 L 20.3620 40.4300 L 20.2425 40.2200 L 20.1246 40.0091 L 20.0083 39.7973 L 19.8937 39.5845 L 19.7808 39.3708 L 19.6695 39.1562 L 19.5599 38.9407 L 19.4520 38.7244 L 19.3458 38.5072 L 19.2413 38.2891 L 19.1385 38.0703 L 19.0374 37.8505 L 18.9381 37.6300 L 18.8404 37.4087 L 18.7445 37.1866 L 18.6503 36.9638 L 18.5579 36.7402 L 18.4673 36.5159 L 18.3783 36.2908 L 18.2912 36.0650 L 18.2058 35.8385 L 18.1222 35.6114 L 18.0404 35.3836 L 17.9603 35.1551 L 17.8821 34.9260 L 17.8056 34.6962 L 17.7310 34.4659 L 17.6581 34.2349 L 17.5871 34.0033 L 17.5179 33.7712 L 17.4505 33.5385 L 17.3849 33.3053 L 17.3211 33.0716 L 17.2592 32.8373 L 17.1991 32.6026 L 17.1409 32.3673 L 17.0845 32.1316 L 17.0300 31.8954 L 16.9773 31.6588 L 16.9264 31.4218 L 16.8774 31.1843 L 16.8303 30.9465 L 16.7851 30.7083 L 16.7417 30.4697 L 16.7002 30.2307 L 16.6605 29.9914 L 16.6228 29.7518 L 16.5869 29.5119 L 16.5529 29.2716 L 16.5208 29.0311 L 16.4906 28.7904 L 16.4622 28.5493 L 16.4358 28.3081 L 16.4113 28.0666 L 16.3886 27.8249 L 16.3679 27.5830 L 16.3490 27.3410 L 16.3320 27.0988 L 16.3170 26.8564 L 16.3038 26.6139 L 16.2926 26.3713 L 16.2833 26.1286 L 16.2758 25.8858 L 16.2703 25.6429 L 16.3667 25.4000 L 16.3645 25.2607 L 16.3635 25.1214 L 16.3636 24.9820 L 16.3648 24.8426 L 16.3670 24.7033 L 16.3704 24.5639 L 16.3748 24.4245 L 16.3804 24.2852 L 16.3870 24.1459 L 16.3947 24.0066 L 16.4036 23.8673 L 16.4135 23.7281 L 16.4245 23.5890 L 16.4367 23.4499 L 16.4499 23.3110 L 16.4642 23.1721 L 16.4796 23.0333 L 16.4961 22.8946 L 16.5136 22.7560 L 16.5323 22.6176 L 16.5521 22.4792 L 16.5729 22.3410 L 16.5949 22.2030 L 16.6179 22.0651 L 16.6420 21.9274 L 16.6672 21.7898 L 16.6935 21.6525 L 16.7209 21.5153 L 16.7493 21.3783 L 16.7789 21.2416 L 16.8095 21.1050 L 16.8411 20.9687 L 16.8739 20.8326 L 16.9077 20.6967 L 16.9426 20.5611 L 16.9786 20.4258 L 17.0156 20.2907 L 17.0538 20.1559 L 17.0929 20.0214 L 17.1332 19.8871 L 17.1744 19.7532 L 17.2168 19.6196 L 17.2602 19.4863 L 17.3047 19.3533 L 17.3502 19.2207 L 17.3967 19.0884 L 17.4443 18.9564 L 17.4930 18.8248 L 17.5426 18.6936 L 17.5934 18.5627 L 17.6451 18.4323 L 17.6979 18.3022 L 17.7517 18.1725 L 17.8065 18.0432 L 17.8624 17.9144 L 17.9193 17.7859 L 17.9772 17.6579 L 18.0361 17.5304 L 18.0960 17.4033 L 18.1569 17.2766 L 18.2188 17.1504 L 18.2818 17.0247 L 18.3457 16.8994 L 18.4106 16.7747 L 18.4765 16.6504 L 18.5434 16.5267 L 18.6113 16.4034 L 18.6801 16.2807 L 18.7499 16.1585 L 18.8207 16.0368 L 18.8924 15.9157 L 18.9651 15.7951 L 19.0388 15.6751 L 19.1134 15.5557 L 19.1890 15.4368 L 19.2655 15.3185 L 19.3429 15.2008 L 19.4213 15.0836 L 19.5006 14.9671 L 19.5808 14.8512 L 19.6620 14.7359 L 19.7441 14.6213 L 19.8270 14.5072 L 19.9109 14.3938 L 19.9957 14.2811 L 20.0814 14.1690 L 20.1680 14.0575 L 20.2554 13.9468 L 20.3438 13.8367 L 20.4330 13.7273 L 20.5231 13.6185 L 20.6140 13.5105 L 20.7058 13.4032 L 20.7985 13.2965 L 20.8920 13.1906 L 20.9863 13.0855 L 21.0815 12.9810 L 21.1776 12.8773 L 21.2744 12.7743 L 21.3721 12.6721 L 21.4706 12.5706 L 21.5699 12.4699 L 21.6700 12.3700 L 21.7709 12.2708 L 21.8725 12.1724 L 21.9750 12.0748 L 22.0783 11.9780 L 22.1823 11.8820 L 22.2871 11.7868 L 22.3926 11.6924 L 22.4989 11.5988 L 22.6060 11.5061 L 22.7138 11.4142 L 22.8223 11.3231 L 22.9315 11.2329 L 23.0415 11.1435 L 23.1522 11.0550 L 23.2636 10.9673 L 23.3757 10.8805 L 23.4885 10.7945 L 23.6020 10.7095 L 23.7162 10.6253 L 23.8310 10.5420 L 23.9465 10.4596 L 24.0627 10.3781 L 24.1795 10.2975 L 24.2970 10.2178 L 24.4151 10.1391 L 24.5339 10.0612 L 24.6532 9.9843 L 24.7732 9.9083 L 24.8938 9.8332 L 25.0150 9.7591 L 25.1368 9.6859 L 25.2592 9.6136 L 25.3822 9.5424 L 25.5057 9.4720 L 25.6298 9.4027 L 25.7545 9.3343 L 25.8797 9.2668 L 26.0055 9.2004 L 26.1318 9.1349 L 26.2587 9.0704 L 26.3860 9.0069 L 26.5139 8.9444 L 26.6423 8.8829 L 26.7711 8.8224 L 26.9005 8.7629 L 27.0304 8.7045 L 27.1607 8.6470 L 27.2915 8.5905 L 27.4227 8.5351 L 27.5544 8.4807 L 27.6866 8.4273 L 27.8191 8.3750 L 27.9521 8.3236 L 28.0856 8.2734 L 28.2194 8.2241 L 28.3536 8.1760 L 28.4883 8.1288 L 28.6233 8.0827 L 28.7587 8.0377 L 28.8944 7.9937 L 29.0305 7.9508 L 29.1670 7.9090 L 29.3038 7.8682 L 29.4410 7.8285 L 29.5785 7.7899 L 29.7163 7.7523 L 29.8544 7.7158 L 29.9928 7.6804 L 30.1315 7.6461 L 30.2705 7.6129 L 30.4098 7.5808 L 30.5494 7.5497 L 30.6892 7.5198 L 30.8292 7.4909 L 30.9695 7.4631 L 31.1100 7.4365 L 31.2508 7.4109 L 31.3918 7.3864 L 31.5330 7.3631 L 31.6744 7.3408 L 31.8159 7.3197 L 31.9577 7.2997 L 32.0996 7.2808 L 32.2417 7.2629 L 32.3840 7.2463 L 32.5264 7.2307 L 32.6689 7.2162 L 32.8116 7.2029 L 32.9544 7.1907 L 33.0973 7.1796 L 33.2403 7.1696 L 33.3834 7.1607 L 33.5266 7.1530 L 33.6698 7.1464 L 33.8132 7.1409 L 33.9566 7.1366 L 34.1000 7.1333 L 34.1799 7.1310 L 34.2598 7.1293 L 34.3397 7.1282 L 34.4197 7.1277 L 34.4997 7.1278 L 34.5797 7.1286 L 34.6597 7.1301 L 34.7397 7.1321 L 34.8197 7.1348 L 34.8998 7.1381 L 34.9798 7.1420 L 35.0598 7.1466 L 35.1398 7.1518 L 35.2197 7.1576 L 35.2997 7.1641 L 35.3796 7.1712 L 35.4594 7.1789 L 35.5393 7.1872 L 35.6190 7.1962 L 35.6988 7.2058 L 35.7784 7.2161 L 35.8580 7.2269 L 35.9376 7.2384 L 36.0170 7.2505 L 36.0964 7.2633 L 36.1757 7.2767 L 36.2550 7.2907 L 36.3341 7.3053 L 36.4131 7.3206 L 36.4920 7.3364 L 36.5709 7.3530 L 36.6496 7.3701 L 36.7282 7.3878 L 36.8066 7.4062 L 36.8850 7.4252 L 36.9632 7.4448 L 37.0413 7.4651 L 37.1192 7.4859 L 37.1970 7.5074 L 37.2746 7.5295 L 37.3521 7.5522 L 37.4294 7.5755 L 37.5066 7.5994 L 37.5836 7.6240 L 37.6604 7.6491 L 37.7370 7.6749 L 37.8135 7.7013 L 37.8897 7.7283 L 37.9658 7.7558 L 38.0416 7.7840 L 38.1173 7.8128 L 38.1927 7.8422 L 38.2680 7.8722 L 38.3430 7.9028 L 38.4178 7.9340 L 38.4923 7.9658 L 38.5667 7.9982 L 38.6408 8.0312 L 38.7146 8.0647 L 38.7882 8.0989 L 38.8616 8.1336 L 38.9347 8.1689 L 39.0075 8.2048 L 39.0800 8.2413 L 39.1523 8.2784 L 39.2244 8.3160 L 39.2961 8.3543 L 39.3676 8.3930 L 39.4387 8.4324 L 39.5096 8.4723 L 39.5802 8.5128 L 39.6505 8.5539 L 39.7204 8.5955 L 39.7901 8.6377 L 39.8594 8.6804 L 39.9284 8.7237 L 39.9971 8.7676 L 40.0655 8.8120 L 40.1335 8.8569 L 40.2012 8.9024 L 40.2686 8.9484 L 40.3356 8.9950 L 40.4022 9.0421 L 40.4685 9.0898 L 40.5344 9.1379 L 40.6000 9.1866 L 40.6652 9.2359 L 40.7301 9.2856 L 40.7945 9.3359 L 40.8586 9.3867 L 40.9223 9.4380 L 40.9856 9.4898 L 41.0485 9.5422 L 41.1110 9.5950 L 41.1731 9.6484 L 41.2348 9.7022 L 41.2961 9.7565 L 41.3570 9.8114 L 41.4174 9.8667 L 41.4775 9.9225 L 41.5371 9.9788 L 41.5963 10.0356 L 41.6550 10.0929 L 41.7133 10.1506 L 41.7712 10.2088 L 41.8287 10.2675 L 41.8856 10.3266 L 41.9422 10.3862 L 41.9982 10.4463 L 42.0538 10.5068 L 42.1090 10.5677 L 42.1637 10.6291 L 42.2179 10.6910 L 42.2716 10.7533 L 42.3249 10.8160 L 42.3777 10.8792 L 42.4300 10.9428 L 42.4818 11.0068 L 42.5331 11.0712 L 42.5839 11.1361 L 42.6342 11.2014 L 42.6840 11.2670 L 42.7333 11.3331 L 42.7821 11.3996 L 42.8304 11.4665 L 42.8782 11.5338 L 42.9255 11.6015 L 42.9722 11.6695 L 43.0184 11.7380 L 43.0641 11.8068 L 43.1092 11.8760 L 43.1539 11.9456 L 43.1979 12.0155 L 43.2415 12.0858 L 43.2845 12.1564 L 43.3269 12.2275 L 43.3688 12.2988 L 43.4102 12.3705 L 43.4510 12.4426 L 43.4912 12.5149 L 43.5309 12.5877 L 43.5700 12.6607 L 43.6085 12.7341 L 43.6465 12.8077 L 43.6839 12.8817 L 43.7208 12.9561 L 43.7570 13.0307 L 43.7927 13.1056 L 43.8278 13.1808 L 43.8623 13.2563 L 43.8963 13.3321 L 43.9296 13.4082 L 43.9623 13.4845 L 43.9945 13.5612 L 44.0261 13.6381 L 44.0570 13.7152 L 44.0874 13.7927 L 44.1172 13.8704 L 44.1463 13.9483 L 44.1749 14.0265 L 44.2028 14.1049 L 44.2301 14.1836 L 44.2569 14.2625 L 44.2830 14.3416 L 44.3084 14.4209 L 44.3333 14.5005 L 44.3576 14.5803 L 44.3812 14.6602 L 44.4042 14.7404 L 44.4266 14.8208 L 44.4483 14.9014 L 44.4694 14.9822 L 44.4899 15.0631 L 44.5098 15.1442 L 44.5290 15.2255 L 44.5476 15.3070 L 44.5656 15.3886 L 44.5829 15.4704 L 44.5996 15.5524 L 44.6156 15.6345 L 44.6310 15.7167 L 44.6457 15.7991 L 44.6598 15.8816 L 44.6733 15.9643 L 44.6861 16.0471 L 44.6983 16.1299 L 44.7098 16.2129 L 44.7207 16.2961 L 44.7309 16.3793 L 44.7404 16.4626 L 44.7493 16.5460 L 44.7576 16.6295 L 44.7652 16.7131 L 44.7721 16.7967 L 44.7784 16.8804 L 44.7841 16.9642 L 44.7890 17.0481 L 44.7933 17.1320 L 44.7970 17.2160 L 44.8000 17.3000 L 44.8025 17.3448 L 44.8046 17.3896 L 44.8064 17.4345 L 44.8078 17.4794 L 44.8089 17.5243 L 44.8097 17.5693 L 44.8100 17.6142 L 44.8100 17.6592 L 44.8097 17.7043 L 44.8090 17.7493 L 44.8080 17.7944 L 44.8066 17.8394 L 44.8048 17.8845 L 44.8027 17.9296 L 44.8002 17.9747 L 44.7974 18.0197 L 44.7942 18.0648 L 44.7907 18.1099 L 44.7868 18.1550 L 44.7825 18.2000 L 44.7779 18.2451 L 44.7729 18.2901 L 44.7676 18.3351 L 44.7619 18.3801 L 44.7559 18.4250 L 44.7495 18.4699 L 44.7427 18.5148 L 44.7356 18.5597 L 44.7281 18.6045 L 44.7203 18.6493 L 44.7121 18.6941 L 44.7036 18.7388 L 44.6947 18.7834 L 44.6854 18.8280 L 44.6758 18.8725 L 44.6659 18.9170 L 44.6555 18.9615 L 44.6449 19.0058 L 44.6338 19.0501 L 44.6225 19.0944 L 44.6107 19.1385 L 44.5986 19.1826 L 44.5862 19.2266 L 44.5734 19.2706 L 44.5603 19.3144 L 44.5468 19.3582 L 44.5329 19.4018 L 44.5187 19.4454 L 44.5042 19.4889 L 44.4893 19.5323 L 44.4741 19.5756 L 44.4585 19.6188 L 44.4425 19.6619 L 44.4262 19.7049 L 44.4096 19.7478 L 44.3926 19.7905 L 44.3753 19.8332 L 44.3577 19.8757 L 44.3396 19.9181 L 44.3213 19.9604 L 44.3026 20.0025 L 44.2836 20.0446 L 44.2642 20.0865 L 44.2445 20.1282 L 44.2245 20.1698 L 44.2041 20.2113 L 44.1834 20.2527 L 44.1623 20.2938 L 44.1409 20.3349 L 44.1192 20.3758 L 44.0972 20.4165 L 44.0748 20.4571 L 44.0521 20.4975 L 44.0290 20.5378 L 44.0057 20.5779 L 43.9820 20.6178 L 43.9580 20.6575 L 43.9336 20.6971 L 43.9090 20.7365 L 43.8840 20.7758 L 43.8587 20.8148 L 43.8331 20.8537 L 43.8071 20.8924 L 43.7809 20.9309 L 43.7543 20.9692 L 43.7274 21.0073 L 43.7002 21.0452 L 43.6727 21.0829 L 43.6449 21.1204 L 43.6168 21.1577 L 43.5884 21.1948 L 43.5597 21.2317 L 43.5306 21.2684 L 43.5013 21.3049 L 43.4717 21.3411 L 43.4417 21.3772 L 43.4115 21.4130 L 43.3810 21.4486 L 43.3502 21.4839 L 43.3191 21.5191 L 43.2877 21.5540 L 43.2560 21.5887 L 43.2240 21.6231 L 43.1918 21.6573 L 43.1592 21.6912 L 43.1264 21.7250 L 43.0933 21.7584 L 43.0599 21.7917 L 43.0263 21.8246 L 42.9924 21.8574 L 42.9582 21.8898 L 42.9237 21.9221 L 42.8890 21.9540 L 42.8540 21.9857 L 42.8187 22.0171 L 42.7832 22.0483 L 42.7474 22.0792 L 42.7113 22.1098 L 42.6750 22.1402 L 42.6385 22.1703 L 42.6017 22.2001 L 42.5646 22.2296 L 42.5273 22.2589 L 42.4897 22.2878 L 42.4519 22.3165 L 42.4139 22.3449 L 42.3756 22.3730 L 42.3371 22.4009 L 42.2984 22.4284 L 42.2594 22.4556 L 42.2202 22.4826 L 42.1807 22.5092 L 42.1411 22.5356 L 42.1012 22.5616 L 42.0610 22.5873 L 42.0207 22.6128 L 41.9802 22.6379 L 41.9394 22.6627 L 41.8984 22.6872 L 41.8572 22.7114 L 41.8158 22.7353 L 41.7742 22.7588 L 41.7324 22.7820 L 41.6904 22.8050 L 41.6482 22.8276 L 41.6058 22.8498 L 41.5633 22.8718 L 41.5205 22.8934 L 41.4775 22.9147 L 41.4344 22.9357 L 41.3910 22.9563 L 41.3475 22.9766 L 41.3038 22.9966 L 41.2600 23.0162 L 41.2159 23.0355 L 41.1717 23.0544 L 41.1273 23.0730 L 41.0828 23.0913 L 41.0381 23.1092 L 40.9932 23.1268 L 40.9482 23.1440 L 40.9031 23.1609 L 40.8577 23.1775 L 40.8123 23.1936 L 40.7666 23.2095 L 40.7209 23.2250 L 40.6750 23.2401 L 40.6289 23.2548 L 40.5828 23.2693 L 40.5365 23.2833 L 40.4900 23.2970 L 40.4435 23.3103 L 40.3968 23.3233 L 40.3500 23.3359 L 40.3031 23.3482 L 40.2560 23.3601 L 40.2089 23.3716 L 40.1616 23.3827 L 40.1142 23.3935 L 40.0668 23.4039 L 40.0192 23.4140 L 39.9715 23.4236 L 39.9238 23.4329 L 39.8759 23.4419 L 39.8279 23.4504 L 39.7799 23.4586 L 39.7318 23.4664 L 39.6836 23.4738 L 39.6353 23.4809 L 39.5870 23.4875 L 39.5385 23.4938 L 39.4901 23.4997 L 39.4415 23.5053 L 39.3929 23.5104 L 39.3442 23.5152 L 39.2955 23.5196 L 39.2467 23.5236 L 39.1978 23.5272 L 39.1489 23.5305 L 39.1000 23.5333 L 39.0754 23.5359 L 39.0507 23.5383 L 39.0260 23.5405 L 39.0012 23.5424 L 38.9765 23.5442 L 38.9516 23.5458 L 38.9268 23.5472 L 38.9019 23.5484 L 38.8770 23.5494 L 38.8521 23.5503 L 38.8271 23.5509 L 38.8021 23.5513 L 38.7771 23.5515 L 38.7521 23.5515 L 38.7270 23.5513 L 38.7019 23.5510 L 38.6769 23.5504 L 38.6517 23.5496 L 38.6266 23.5486 L 38.6015 23.5474 L 38.5764 23.5461 L 38.5512 23.5445 L 38.5260 23.5427 L 38.5009 23.5407 L 38.4757 23.5385 L 38.4505 23.5361 L 38.4254 23.5335 L 38.4002 23.5307 L 38.3750 23.5277 L 38.3499 23.5245 L 38.3247 23.5211 L 38.2996 23.5175 L 38.2744 23.5137 L 38.2493 23.5097 L 38.2242 23.5055 L 38.1990 23.5011 L 38.1740 23.4965 L 38.1489 23.4917 L 38.1238 23.4866 L 38.0988 23.4814 L 38.0738 23.4760 L 38.0488 23.4704 L 38.0238 23.4645 L 37.9989 23.4585 L 37.9740 23.4522 L 37.9491 23.4458 L 37.9242 23.4392 L 37.8994 23.4323 L 37.8746 23.4253 L 37.8499 23.4180 L 37.8252 23.4106 L 37.8005 23.4029 L 37.7759 23.3950 L 37.7513 23.3870 L 37.7268 23.3787 L 37.7023 23.3702 L 37.6779 23.3616 L 37.6535 23.3527 L 37.6291 23.3436 L 37.6049 23.3344 L 37.5806 23.3249 L 37.5565 23.3152 L 37.5323 23.3054 L 37.5083 23.2953 L 37.4843 23.2851 L 37.4604 23.2746 L 37.4365 23.2639 L 37.4127 23.2531 L 37.3890 23.2420 L 37.3653 23.2308 L 37.3417 23.2193 L 37.3182 23.2077 L 37.2948 23.1958 L 37.2714 23.1838 L 37.2481 23.1716 L 37.2249 23.1591 L 37.2018 23.1465 L 37.1787 23.1337 L 37.1558 23.1207 L 37.1329 23.1075 L 37.1101 23.0941 L 37.0874 23.0805 L 37.0648 23.0668 L 37.0423 23.0528 L 37.0198 23.0387 L 36.9975 23.0243 L 36.9753 23.0098 L 36.9532 22.9951 L 36.9311 22.9802 L 36.9092 22.9651 L 36.8874 22.9498 L 36.8656 22.9344 L 36.8440 22.9187 L 36.8225 22.9029 L 36.8011 22.8869 L 36.7798 22.8707 L 36.7587 22.8543 L 36.7376 22.8378 L 36.7167 22.8211 L 36.6958 22.8042 L 36.6751 22.7871 L 36.6545 22.7698 L 36.6341 22.7524 L 36.6137 22.7348 L 36.5935 22.7170 L 36.5734 22.6990 L 36.5535 22.6809 L 36.5336 22.6626 L 36.5139 22.6441 L 36.4943 22.6254 L 36.4749 22.6066 L 36.4556 22.5876 L 36.4364 22.5685 L 36.4174 22.5492 L 36.3985 22.5297 L 36.3798 22.5100 L 36.3612 22.4902 L 36.3427 22.4702 L 36.3244 22.4501 L 36.3062 22.4298 L 36.2882 22.4094 L 36.2703 22.3888 L 36.2526 22.3680 L 36.2350 22.3471 L 36.2176 22.3260 L 36.2003 22.3047 L 36.1832 22.2834 L 36.1662 22.2618 L 36.1494 22.2401 L 36.1328 22.2183 L 36.1163 22.1963 L 36.1000 22.1742 L 36.0839 22.1519 L 36.0679 22.1295 L 36.0521 22.1069 L 36.0364 22.0842 L 36.0210 22.0614 L 36.0056 22.0384 L 35.9905 22.0153 L 35.9755 21.9920 L 35.9607 21.9686 L 35.9461 21.9451 L 35.9317 21.9214 L 35.9174 21.8976 L 35.9033 21.8737 L 35.8894 21.8496 L 35.8757 21.8254 L 35.8622 21.8011 L 35.8488 21.7767 L 35.8356 21.7521 L 35.8226 21.7275 L 35.8098 21.7027 L 35.7972 21.6778 L 35.7848 21.6527 L 35.7725 21.6276 L 35.7605 21.6023 L 35.7486 21.5769 L 35.7370 21.5514 L 35.7255 21.5258 L 35.7142 21.5001 L 35.7032 21.4743 L 35.6923 21.4484 L 35.6816 21.4223 L 35.6711 21.3962 L 35.6608 21.3699 L 35.6507 21.3436 L 35.6409 21.3172 L 35.6312 21.2906 L 35.6217 21.2640 L 35.6124 21.2373 L 35.6034 21.2105 L 35.5945 21.1836 L 35.5859 21.1566 L 35.5774 21.1295 L 35.5692 21.1023 L 35.5611 21.0751 L 35.5533 21.0477 L 35.5457 21.0203 L 35.5383 20.9928 L 35.5312 20.9652 L 35.5242 20.9376 L 35.5174 20.9099 L 35.5109 20.8821 L 35.5046 20.8542 L 35.4985 20.8263 L 35.4926 20.7983 L 35.4869 20.7702 L 35.4815 20.7421 L 35.4762 20.7139 L 35.4712 20.6856 L 35.4664 20.6573 L 35.4619 20.6289 L 35.4575 20.6005 L 35.4534 20.5720 L 35.4495 20.5434 L 35.4458 20.5148 L 35.4423 20.4862 L 35.4391 20.4575 L 35.4361 20.4288 L 35.4333 20.4000 L 35.4307 20.3861 L 35.4282 20.3722 L 35.4258 20.3582 L 35.4235 20.3442 L 35.4214 20.3301 L 35.4193 20.3160 L 35.4174 20.3019 L 35.4155 20.2877 L 35.4138 20.2735 L 35.4122 20.2593 L 35.4107 20.2450 L 35.4093 20.2307 L 35.4080 20.2164 L 35.4069 20.2020 L 35.4059 20.1876 L 35.4049 20.1732 L 35.4041 20.1588 L 35.4034 20.1443 L 35.4029 20.1298 L 35.4024 20.1153 L 35.4021 20.1007 L 35.4018 20.0862 L 35.4017 20.0716 L 35.4018 20.0570 L 35.4019 20.0423 L 35.4021 20.0277 L 35.4025 20.0130 L 35.4030 19.9983 L 35.4036 19.9836 L 35.4044 19.9689 L 35.4052 19.9542 L 35.4062 19.9394 L 35.4073 19.9247 L 35.4085 19.9099 L 35.4098 19.8951 L 35.4113 19.8803 L 35.4129 19.8655 L 35.4146 19.8507 L 35.4164 19.8359 L 35.4184 19.8211 L 35.4204 19.8063 L 35.4226 19.7915 L 35.4249 19.7766 L 35.4274 19.7618 L 35.4299 19.7470 L 35.4326 19.7322 L 35.4354 19.7173 L 35.4384 19.7025 L 35.4414 19.6877 L 35.4446 19.6729 L 35.4479 19.6581 L 35.4514 19.6433 L 35.4549 19.6285 L 35.4586 19.6137 L 35.4624 19.5990 L 35.4664 19.5842 L 35.4704 19.5695 L 35.4746 19.5547 L 35.4789 19.5400 L 35.4833 19.5253 L 35.4879 19.5106 L 35.4926 19.4960 L 35.4974 19.4813 L 35.5023 19.4667 L 35.5074 19.4521 L 35.5125 19.4375 L 35.5178 19.4229 L 35.5233 19.4084 L 35.5288 19.3939 L 35.5345 19.3794 L 35.5403 19.3649 L 35.5462 19.3505 L 35.5523 19.3361 L 35.5585 19.3217 L 35.5648 19.3074 L 35.5712 19.2931 L 35.5778 19.2788 L 35.5844 19.2646 L 35.5912 19.2504 L 35.5981 19.2362 L 35.6052 19.2221 L 35.6124 19.2080 L 35.6197 19.1939 L 35.6271 19.1799 L 35.6346 19.1659 L 35.6423 19.1520 L 35.6500 19.1381 L 35.6579 19.1243 L 35.6660 19.1105 L 35.6741 19.0968 L 35.6824 19.0831 L 35.6908 19.0694 L 35.6993 19.0558 L 35.7079 19.0423 L 35.7167 19.0288 L 35.7255 19.0154 L 35.7345 19.0020 L 35.7436 18.9887 L 35.7529 18.9754 L 35.7622 18.9622 L 35.7717 18.9491 L 35.7813 18.9360 L 35.7910 18.9230 L 35.8008 18.9100 L 35.8107 18.8971 L 35.8208 18.8842 L 35.8309 18.8715 L 35.8412 18.8588 L 35.8516 18.8461 L 35.8621 18.8336 L 35.8728 18.8211 L 35.8835 18.8086 L 35.8944 18.7963 L 35.9053 18.7840 L 35.9164 18.7718 L 35.9276 18.7596 L 35.9389 18.7476 L 35.9503 18.7356 L 35.9619 18.7237 L 35.9735 18.7119 L 35.9852 18.7001 L 35.9971 18.6884 L 36.0091 18.6768 L 36.0211 18.6653 L 36.0333 18.6539 L 36.0456 18.6426 L 36.0580 18.6313 L 36.0705 18.6202 L 36.0831 18.6091 L 36.0958 18.5981 L 36.1086 18.5872 L 36.1215 18.5764 L 36.1345 18.5657 L 36.1476 18.5550 L 36.1609 18.5445 L 36.1742 18.5341 L 36.1876 18.5237 L 36.2011 18.5135 L 36.2147 18.5033 L 36.2285 18.4932 L 36.2423 18.4833 L 36.2562 18.4734 L 36.2702 18.4637 L 36.2843 18.4540 L 36.2985 18.4445 L 36.3128 18.4350 L 36.3272 18.4257 L 36.3416 18.4164 L 36.3562 18.4073 L 36.3709 18.3983 L 36.3856 18.3893 L 36.4004 18.3805 L 36.4154 18.3718 L 36.4304 18.3632 L 36.4455 18.3547 L 36.4606 18.3464 L 36.4759 18.3381 L 36.4913 18.3300 L 36.5067 18.3219 L 36.5222 18.3140 L 36.5378 18.3062 L 36.5535 18.2985 L 36.5693 18.2910 L 36.5851 18.2835 L 36.6010 18.2762 L 36.6170 18.2690 L 36.6331 18.2619 L 36.6492 18.2549 L 36.6655 18.2481 L 36.6818 18.2413 L 36.6981 18.2347 L 36.7146 18.2283 L 36.7311 18.2219 L 36.7476 18.2157 L 36.7643 18.2096 L 36.7810 18.2036 L 36.7978 18.1978 L 36.8146 18.1920 L 36.8316 18.1865 L 36.8485 18.1810 L 36.8656 18.1757 L 36.8827 18.1705 L 36.8999 18.1654 L 36.9171 18.1605 L 36.9344 18.1557 L 36.9517 18.1510 L 36.9691 18.1465 L 36.9866 18.1421 L 37.0041 18.1378 L 37.0216 18.1337 L 37.0393 18.1297 L 37.0569 18.1258 L 37.0746 18.1221 L 37.0924 18.1185 L 37.1102 18.1151 L 37.1281 18.1118 L 37.1460 18.1086 L 37.1640 18.1056 L 37.1820 18.1027 L 37.2000 18.1000 A 0.8000 0.8000 0 0 0 37.2000 16.5000 Z" fill="#23a67a"/>
</svg>